if(_typeface_js&&_typeface_js.loadFace)_typeface_js.loadFace({"glyphs":{"S":{"x_min":0,"x_max":670.765625,"ha":743,"o":"m 508 771 q 536 798 524 782 q 558 834 549 815 q 571 873 567 853 q 575 916 575 894 q 564 980 575 948 q 534 1035 554 1012 q 474 1072 514 1058 q 378 1087 434 1087 q 265 1071 316 1087 q 172 1023 215 1056 q 102 942 129 990 q 74 844 74 893 q 95 754 71 794 q 159 681 118 714 q 250 620 199 648 q 356 565 302 592 q 461 509 409 538 q 553 442 512 479 q 618 360 593 406 q 642 255 642 315 q 615 146 642 198 q 541 53 588 94 q 429 -10 493 13 q 291 -34 365 -34 q 154 -16 208 -34 q 69 28 101 1 q 25 87 37 55 q 13 145 13 118 q 24 205 13 179 q 52 253 34 232 q 91 291 69 275 q 137 318 113 307 q 182 336 160 329 q 222 347 204 343 l 231 306 q 201 293 223 303 q 155 265 180 282 q 113 222 130 248 q 97 155 97 196 q 107 99 96 121 q 142 57 117 77 q 203 24 168 38 q 284 9 238 9 q 381 20 339 9 q 450 45 423 30 q 496 81 477 59 q 529 127 516 103 q 547 171 541 150 q 552 212 552 193 q 529 302 552 263 q 466 372 505 341 q 377 428 427 403 q 276 479 328 454 q 174 531 224 504 q 86 593 125 558 q 23 672 47 628 q 0 776 0 716 q 33 923 0 856 q 121 1040 66 990 q 249 1116 175 1089 q 405 1139 324 1142 q 529 1122 479 1138 q 610 1079 578 1106 q 656 1019 641 1053 q 670 950 670 985 q 656 873 670 908 q 620 812 641 838 q 576 767 600 785 q 534 741 552 749 l 508 771 "},"/":{"x_min":-10.859375,"x_max":352,"ha":332,"o":"m 37 -76 l -10 -63 l 303 1104 l 352 1091 l 37 -76 "},"K":{"x_min":-145.8125,"x_max":1155.6875,"ha":979,"o":"m 978 1046 l 925 1045 q 868 1030 890 1045 q 831 990 845 1015 q 809 943 816 965 q 795 883 803 921 q 778 804 787 845 q 754 726 769 764 q 716 653 739 687 q 658 592 693 618 q 719 523 694 564 q 763 436 745 483 q 795 336 781 388 q 821 233 809 284 q 847 133 834 181 q 878 54 860 85 q 922 -5 896 23 q 983 -48 947 -35 q 1058 -66 1018 -62 q 1151 -71 1098 -71 l 1155 -118 q 1135 -121 1146 -120 q 1111 -123 1125 -122 q 1079 -124 1097 -124 q 916 -101 981 -124 q 810 -39 851 -78 q 748 51 769 0 q 715 160 727 103 q 698 276 704 217 q 683 389 693 335 q 652 486 674 443 q 594 559 629 529 q 542 543 569 549 q 478 536 516 538 l 478 347 q 477 247 478 290 q 468 172 475 205 q 449 113 462 139 q 415 62 436 87 q 308 -7 377 19 q 145 -34 240 -34 q 34 -18 87 -34 q -58 27 -18 -2 q -122 96 -98 56 q -145 187 -145 137 q -133 252 -145 223 q -103 304 -122 282 q -61 343 -84 327 q -17 370 -38 360 q 22 387 4 381 q 48 396 40 394 l 65 352 q 30 329 50 343 q -5 294 11 316 q -32 250 -22 273 q -42 187 -42 228 q -28 113 -42 143 q 11 59 -14 83 q 71 24 38 35 q 149 13 105 13 q 240 25 198 13 q 314 71 282 37 q 360 151 345 106 q 375 275 375 196 l 375 540 q 342 551 355 544 q 321 565 328 557 q 309 581 313 573 q 306 597 306 589 q 309 613 306 604 q 321 629 313 621 q 342 643 328 636 q 375 654 355 650 l 375 710 q 377 813 375 764 q 389 909 379 862 q 416 994 400 955 q 468 1077 432 1033 q 402 1051 434 1055 q 333 1048 370 1048 q 237 1054 286 1048 q 139 1061 189 1061 q 90 1053 110 1061 q 57 1034 71 1046 q 39 1009 43 1022 q 35 979 35 997 q 44 943 35 961 q 68 914 53 925 q 104 895 83 904 q 156 887 125 887 q 208 893 185 887 q 248 905 231 898 q 282 923 267 912 l 298 880 q 257 859 280 868 q 213 845 238 851 q 159 838 187 838 q 88 850 120 838 q 33 880 56 861 q -1 926 10 900 q -14 984 -14 953 q 0 1049 -14 1021 q 36 1097 12 1077 q 91 1127 59 1117 q 159 1137 122 1137 q 229 1132 196 1137 q 291 1123 261 1128 q 348 1113 320 1118 q 402 1109 375 1109 q 457 1115 430 1109 q 514 1137 484 1121 l 541 1117 q 514 1071 526 1096 q 495 1010 503 1046 q 482 924 486 974 q 478 804 478 874 l 478 657 q 594 632 553 651 q 648 690 630 656 q 679 758 666 723 q 696 834 693 794 q 703 914 699 875 q 716 987 707 952 q 748 1047 726 1022 q 808 1088 770 1073 q 909 1104 847 1104 l 979 1104 l 978 1046 m 478 581 q 531 598 504 583 q 478 613 507 612 l 478 581 m 343 595 q 357 580 347 582 q 374 579 366 578 l 375 611 q 355 610 364 613 q 343 595 346 607 "},"7":{"x_min":-120.71875,"x_max":439.484375,"ha":414,"o":"m -120 843 q -112 911 -120 881 q -88 964 -105 942 q -48 998 -72 986 q 9 1010 -23 1010 q 76 1003 48 1010 q 143 986 104 996 q 223 967 182 975 q 308 958 264 958 q 357 963 337 958 q 392 975 378 968 q 418 992 407 982 l 439 945 q 324 812 373 875 q 242 693 276 750 q 188 585 208 636 q 155 486 167 533 q 140 396 144 439 q 136 314 136 354 q 140 229 136 266 q 150 158 143 191 q 163 99 158 124 q 169 51 169 73 q 154 11 169 23 q 118 0 140 0 q 76 6 94 0 q 40 28 57 12 q 9 77 23 44 q -4 160 -4 110 q 14 360 -4 261 q 73 553 34 460 q 165 729 111 647 q 277 876 219 812 q 254 876 267 874 q 228 878 240 878 q 168 881 200 878 q 112 889 137 883 q 62 897 88 895 q 6 900 37 900 q -57 888 -33 900 q -86 843 -82 875 l -120 843 "},"d":{"x_min":-22.375,"x_max":680.9375,"ha":653,"o":"m 137 0 q 66 17 96 0 q 16 65 35 35 q -12 134 -3 95 q -22 218 -22 174 q -14 297 -22 257 q 6 374 -7 337 q 41 445 20 412 q 88 503 62 478 q 149 545 115 529 q 222 564 183 560 q 296 550 266 564 q 345 507 326 535 q 360 714 347 615 q 394 878 372 812 q 446 979 416 945 q 514 1013 477 1013 q 537 1010 526 1013 q 555 999 548 1007 q 565 977 562 991 q 569 942 569 963 q 560 839 569 897 q 535 713 552 781 q 496 568 519 644 q 444 408 472 491 q 446 282 444 335 q 450 193 447 229 q 456 133 452 156 q 462 102 460 110 q 468 90 464 94 q 482 84 472 86 q 514 100 503 85 q 543 142 524 115 q 582 210 561 170 q 630 302 604 250 l 637 316 l 680 284 l 673 270 q 604 139 634 191 q 549 56 574 87 q 502 12 524 25 q 455 0 480 0 q 414 11 432 0 q 385 49 397 23 q 365 103 373 74 q 353 187 357 132 q 307 107 329 140 q 257 49 284 73 q 198 12 229 24 q 137 0 168 0 m 237 508 q 171 491 200 508 q 124 438 142 474 q 97 357 106 402 q 88 266 88 311 q 94 194 88 229 q 112 134 100 160 q 137 94 124 107 q 176 79 151 82 q 221 89 202 77 q 260 128 239 101 q 302 194 281 155 q 347 287 323 232 q 347 347 348 310 q 347 415 347 384 q 302 483 332 459 q 237 508 273 508 m 518 905 q 512 947 517 936 q 498 958 507 958 q 472 926 482 958 q 455 848 461 895 q 446 731 448 802 q 444 604 444 661 l 444 530 q 477 646 465 598 q 498 741 489 694 q 511 833 507 789 q 518 905 515 877 "},",":{"x_min":55.609375,"x_max":187.1875,"ha":271,"o":"m 116 152 q 145 146 132 152 q 167 128 158 139 q 182 101 177 116 q 187 67 187 85 q 171 2 187 32 q 137 -48 155 -27 q 88 -95 115 -74 l 69 -78 q 83 -64 75 -73 q 99 -44 92 -55 q 111 -19 106 -32 q 116 5 116 -6 q 107 19 116 13 q 86 33 97 25 q 65 53 74 41 q 55 88 55 66 q 60 113 55 101 q 73 133 65 124 q 93 147 82 142 q 116 152 104 152 "},"Y":{"x_min":-166.84375,"x_max":916.28125,"ha":899,"o":"m 406 29 q 481 49 454 31 q 546 103 508 67 q 616 193 585 139 q 700 343 648 247 q 709 513 705 409 q 718 710 712 617 q 735 881 725 803 q 762 1017 745 960 q 803 1106 779 1074 q 861 1138 827 1138 q 898 1117 881 1138 q 916 1048 916 1095 q 909 941 916 1005 q 890 800 903 877 q 856 636 876 722 q 809 462 836 550 l 809 425 q 808 237 809 333 q 801 45 806 141 q 787 -144 796 -50 q 763 -326 778 -238 l 659 -340 q 687 -71 679 -216 q 699 225 695 73 q 638 118 669 166 q 569 36 607 71 q 486 -16 531 1 q 395 -34 442 -34 q 309 -20 351 -34 q 236 25 268 -6 q 185 104 204 56 q 166 222 166 153 q 182 370 166 297 q 220 513 197 443 q 270 650 244 583 q 321 778 297 716 q 359 895 344 840 q 375 1000 375 951 q 366 1041 375 1029 q 348 1061 358 1053 q 322 1074 337 1069 q 288 1079 307 1079 q 203 1062 243 1079 q 114 1005 164 1045 q 28 921 64 965 q -34 820 -6 876 q -74 716 -61 765 q -87 619 -87 668 q -72 549 -88 570 q -27 531 -56 529 q 22 542 -1 531 q 71 576 46 552 q 118 640 95 600 q 158 727 141 680 l 208 701 q 186 654 199 680 q 157 602 174 629 q 120 551 141 576 q 76 507 100 526 q 24 476 52 488 q -34 465 -3 465 q -87 474 -63 465 q -129 501 -111 483 q -157 547 -147 520 q -166 611 -166 574 q -146 735 -166 672 q -90 856 -125 798 q -7 966 -54 915 q 93 1056 40 1018 q 202 1116 146 1094 q 312 1138 259 1138 q 372 1128 345 1138 q 418 1097 398 1117 q 447 1045 437 1076 q 458 972 458 1013 q 443 858 458 922 q 407 725 429 795 q 361 579 386 654 q 314 432 335 505 q 278 291 293 360 q 263 166 263 223 q 281 99 267 124 q 317 56 296 73 q 362 34 338 39 q 406 29 386 29 m 849 1052 q 831 1025 838 1045 q 819 970 824 1006 q 812 872 815 935 q 808 748 808 810 l 809 657 q 832 765 821 712 q 848 851 844 817 q 856 918 852 885 q 864 996 861 952 q 864 1033 866 1020 q 849 1052 862 1045 "},"E":{"x_min":-48.15625,"x_max":854.5625,"ha":773,"o":"m 316 29 q 430 42 384 29 q 514 86 476 56 q 432 116 469 98 q 368 166 396 135 q 328 237 341 197 q 316 321 316 276 q 335 404 316 365 q 381 470 354 443 q 442 512 407 497 q 515 526 477 526 q 588 511 550 526 q 651 470 626 495 q 692 408 676 445 q 707 323 707 371 q 686 221 707 274 q 640 139 665 167 q 705 163 677 145 q 755 205 733 181 q 795 258 778 229 q 824 312 811 286 l 831 326 l 854 284 l 847 270 q 800 193 826 228 q 744 134 775 159 q 676 93 712 110 q 588 73 639 77 q 469 -2 542 30 q 305 -34 396 -34 q 161 -8 226 -34 q 49 63 96 18 q -22 169 3 109 q -48 298 -48 229 q -24 433 -48 375 q 37 531 0 490 q 114 598 75 571 q 196 646 153 625 q 134 682 164 657 q 81 738 104 708 q 47 804 59 769 q 35 874 35 839 q 61 987 35 938 q 130 1070 88 1037 q 226 1121 172 1104 q 333 1138 279 1138 q 419 1127 378 1138 q 490 1098 460 1117 q 524 1103 506 1101 q 562 1104 542 1104 l 562 1076 q 541 1075 551 1076 q 521 1073 531 1074 q 552 1031 541 1054 q 562 979 562 1007 q 554 931 562 952 q 530 893 545 909 q 495 869 515 878 q 451 861 474 861 q 405 869 425 861 q 372 891 385 877 q 349 923 358 904 q 340 961 340 941 q 345 1000 341 985 q 359 1028 349 1014 q 389 1058 369 1043 q 431 1083 408 1072 q 385 1089 407 1088 q 343 1091 362 1091 q 252 1068 286 1085 q 198 1028 218 1050 q 165 964 178 1005 q 151 870 151 923 q 158 808 151 835 q 179 755 165 780 q 216 711 192 731 q 270 681 239 691 q 322 692 299 689 q 359 695 345 695 q 392 690 382 695 q 411 669 402 686 q 406 621 411 624 q 396 613 402 617 q 380 605 391 609 q 354 601 370 601 q 316 602 335 601 q 272 606 297 604 q 193 566 238 596 q 129 502 147 536 q 93 417 110 468 q 76 298 76 365 q 93 174 76 221 q 144 96 110 128 q 223 46 179 64 q 316 29 268 29 m 615 312 q 607 382 615 354 q 581 430 598 410 q 546 457 565 450 q 505 465 527 465 q 462 456 481 465 q 426 428 442 448 q 400 380 409 408 q 390 315 390 352 q 405 249 393 280 q 441 192 417 218 q 496 155 465 166 q 567 139 526 144 q 599 215 583 165 q 615 312 615 265 m 522 971 q 507 1024 520 1003 q 472 1059 493 1044 q 437 1045 456 1056 q 406 1019 418 1033 q 392 992 394 1005 q 389 964 389 978 q 409 920 394 936 q 447 904 425 904 q 497 919 474 898 q 522 971 520 940 "},"y":{"x_min":-13.5625,"x_max":567,"ha":539,"o":"m 42 536 q 55 547 45 543 q 77 553 65 551 q 99 555 88 554 q 112 555 109 555 q 125 550 122 555 q 128 534 128 545 q 125 510 128 529 q 116 463 122 491 q 106 400 111 436 q 95 328 100 365 q 86 252 90 290 q 83 180 83 214 q 100 95 83 121 q 143 71 117 69 q 222 137 187 71 q 294 329 257 202 l 299 518 q 310 536 299 529 q 334 548 320 543 q 360 553 347 552 q 379 555 373 555 q 400 534 400 555 q 399 509 400 526 q 396 468 398 492 q 394 417 395 445 q 393 360 393 389 l 394 107 q 424 149 406 123 q 463 204 443 174 q 502 262 483 233 q 532 314 520 291 l 539 328 l 567 284 l 559 270 q 525 211 545 242 q 483 150 505 181 q 438 89 461 119 q 393 31 415 59 l 393 -118 q 382 -224 393 -180 q 351 -295 370 -267 q 305 -335 331 -322 q 247 -347 278 -347 q 211 -341 227 -347 q 182 -323 194 -335 q 161 -290 170 -311 q 155 -233 153 -270 q 168 -172 157 -203 q 199 -109 179 -142 q 246 -43 219 -77 q 303 28 272 -8 l 301 194 q 264 109 284 148 q 225 47 244 70 q 184 10 206 24 q 116 0 162 -3 q 72 7 94 0 q 30 33 49 14 q -1 84 10 52 q -13 166 -13 116 q -6 282 -13 223 q 9 392 0 341 q 27 481 18 443 q 42 536 37 520 m 242 -298 q 264 -294 253 -298 q 283 -277 276 -289 q 296 -235 290 -265 q 302 -152 302 -204 l 302 -67 q 260 -122 279 -95 q 229 -170 240 -149 q 212 -209 218 -191 q 206 -250 206 -227 q 215 -280 206 -271 q 242 -298 224 -290 "},"\"":{"x_min":55.609375,"x_max":222.453125,"ha":278,"o":"m 55 951 l 118 951 l 118 729 l 76 729 l 55 951 m 201 729 l 160 729 l 160 951 l 222 951 l 201 729 "},"g":{"x_min":-4.0625,"x_max":604.296875,"ha":576,"o":"m 185 -243 q 197 -183 185 -213 q 227 -120 208 -152 q 273 -54 247 -88 q 330 16 299 -20 l 333 117 q 297 65 317 85 q 254 30 276 44 q 207 8 231 16 q 160 0 183 0 q 98 15 128 0 q 46 62 69 31 q 9 142 23 94 q -4 255 -4 190 q 8 364 -4 310 q 47 460 21 417 q 111 529 73 502 q 201 558 149 555 q 278 543 241 558 q 338 497 314 529 l 338 505 q 346 529 338 518 q 366 546 354 539 q 388 554 378 553 q 409 555 399 555 q 425 552 421 555 q 430 541 430 549 q 427 493 430 531 q 425 381 425 455 l 424 101 q 460 147 441 122 q 498 201 479 173 q 535 259 517 229 q 569 319 553 289 l 575 333 l 604 298 l 597 284 q 559 217 581 252 q 515 148 538 182 q 468 84 491 115 q 425 29 444 53 l 425 -118 q 414 -224 425 -180 q 383 -295 402 -267 q 337 -335 364 -322 q 279 -347 310 -347 q 213 -323 240 -347 q 185 -243 186 -300 m 201 69 q 243 81 222 69 q 281 112 263 93 q 313 154 299 131 q 333 198 326 177 l 333 375 q 326 417 333 396 q 304 459 320 438 q 267 489 287 480 q 226 499 247 499 q 168 485 193 499 q 126 446 143 471 q 100 381 108 421 q 92 298 92 340 q 99 204 92 246 q 119 131 105 162 q 153 85 132 101 q 201 69 173 69 m 274 -293 q 296 -291 285 -296 q 316 -271 307 -287 q 329 -230 325 -256 q 333 -152 333 -204 l 333 -63 q 268 -157 293 -109 q 236 -241 244 -206 q 242 -280 231 -266 q 274 -293 253 -293 "},"e":{"x_min":-29.15625,"x_max":441.515625,"ha":414,"o":"m 196 81 q 242 94 219 81 q 289 130 265 107 q 341 198 313 154 q 398 298 369 241 l 404 312 l 441 284 l 434 270 q 361 146 398 198 q 290 62 325 94 q 221 14 255 29 q 156 0 187 0 q 77 18 112 0 q 19 68 43 36 q -16 141 -4 99 q -29 229 -29 183 q -9 362 -29 302 q 44 465 10 422 q 120 531 78 507 q 209 555 163 555 q 281 531 256 555 q 305 472 305 507 q 289 404 305 437 q 239 342 272 370 q 161 285 205 313 q 62 233 117 257 q 78 169 67 198 q 107 119 90 140 q 148 87 125 99 q 196 81 171 76 m 221 451 q 209 491 221 478 q 176 503 197 503 q 140 490 158 503 q 105 450 121 478 q 77 392 88 423 q 59 309 65 360 l 60 288 q 109 314 83 301 q 163 350 136 328 q 205 398 189 373 q 221 451 221 423 "},"J":{"x_min":-7.453125,"x_max":631.421875,"ha":620,"o":"m 333 1138 q 438 1103 392 1138 q 517 994 484 1067 q 565 810 549 921 q 582 573 582 699 q 581 538 582 555 q 581 503 581 521 l 603 531 l 631 486 l 578 426 q 516 84 556 229 q 425 -156 476 -60 q 320 -299 373 -252 q 196 -347 267 -345 q 152 -337 172 -347 q 118 -310 132 -327 q 96 -270 104 -293 q 89 -222 89 -248 q 111 -83 89 -157 q 190 78 132 -8 q 316 241 247 166 q 464 403 384 316 q 469 496 466 431 q 472 638 472 561 q 462 862 472 772 q 435 991 452 951 q 390 1053 417 1032 q 332 1075 363 1075 q 248 1041 290 1075 q 175 948 206 1007 q 124 787 144 889 q 103 555 103 685 q 114 439 103 486 q 144 370 125 392 q 186 335 162 348 q 236 321 210 321 q 303 339 272 321 q 360 393 333 357 q 395 485 387 430 q 403 599 403 541 q 402 630 403 615 q 400 655 401 644 q 396 677 398 667 l 465 692 q 469 671 467 683 q 471 645 470 660 q 472 609 472 630 q 457 471 475 542 q 404 355 439 400 q 326 288 369 311 q 232 265 282 265 q 129 290 177 265 q 52 358 82 316 q 7 461 23 400 q -7 597 -7 522 q 7 741 -7 672 q 46 870 21 810 q 105 980 71 930 q 176 1064 139 1029 q 254 1119 214 1100 q 333 1138 295 1138 m 219 -274 q 256 -264 234 -274 q 301 -229 277 -255 q 349 -159 326 -203 q 394 -46 373 -114 q 432 103 415 22 q 459 312 449 183 q 332 167 387 231 q 241 42 276 102 q 185 -68 206 -16 q 158 -183 164 -120 q 173 -253 158 -232 q 219 -274 189 -274 "},"|":{"x_min":-5.421875,"x_max":50.1875,"ha":43,"o":"m 50 -34 l -5 -34 l -5 1174 l 50 1174 l 50 -34 "},"^":{"x_min":-33.234375,"x_max":411,"ha":391,"o":"m 189 715 l -5 437 l -33 458 l 189 826 l 411 458 l 383 437 l 189 715 "},"q":{"x_min":-4.0625,"x_max":590.046875,"ha":562,"o":"m 335 91 q 277 22 318 50 q 179 0 236 -5 q 100 19 134 0 q 43 72 66 38 q 7 149 19 105 q -4 244 -4 193 q 14 381 -4 322 q 62 478 33 440 q 128 536 92 517 q 201 555 165 555 q 249 549 227 555 q 285 535 271 543 q 316 513 300 527 q 338 483 331 498 q 344 519 343 511 q 353 538 345 528 q 373 551 361 548 q 404 555 385 555 q 425 550 419 555 q 432 534 432 545 q 431 518 432 529 q 428 489 430 507 q 426 444 427 471 q 425 381 425 418 l 425 100 q 450 131 438 115 q 477 172 462 147 q 511 227 491 198 q 551 297 530 255 l 558 311 l 590 284 l 583 270 q 499 127 541 188 q 425 27 457 66 l 425 -222 q 422 -285 425 -261 q 411 -323 419 -309 q 389 -342 403 -337 q 355 -347 376 -347 q 333 -342 339 -347 q 327 -326 327 -337 q 328 -310 327 -321 q 331 -281 329 -299 q 334 -236 333 -263 q 335 -173 335 -210 l 335 91 m 336 319 q 328 382 336 347 q 305 441 320 416 q 265 483 291 465 q 208 501 239 501 q 162 491 185 501 q 123 460 139 482 q 96 396 107 439 q 86 288 86 352 q 96 193 86 233 q 125 127 107 153 q 166 88 143 101 q 212 76 188 76 q 261 87 239 76 q 300 123 284 98 q 325 189 316 148 q 336 288 335 229 l 336 319 "},"b":{"x_min":-13.5625,"x_max":568.34375,"ha":541,"o":"m 88 360 q 99 222 89 282 q 124 125 108 161 q 165 69 140 89 q 222 50 191 50 q 293 76 265 50 q 335 162 321 103 q 267 190 299 170 q 211 241 236 210 q 172 310 187 271 q 158 396 158 349 q 167 462 158 434 q 193 511 177 491 q 231 540 210 530 q 276 550 252 550 q 333 534 304 550 q 386 486 362 518 q 425 407 410 455 q 440 297 440 360 q 437 250 440 273 q 431 218 434 227 q 490 246 463 223 q 535 304 517 269 l 542 318 l 568 284 l 560 270 q 499 197 537 224 q 416 161 461 169 q 384 97 404 126 q 340 46 365 67 q 285 12 316 24 q 218 0 254 0 q 125 21 167 0 q 51 92 82 43 q 3 220 21 141 q -13 416 -13 300 q 1 691 -13 577 q 40 876 16 805 q 96 981 65 948 q 162 1013 128 1013 q 197 997 183 1013 q 210 937 210 980 q 205 859 210 903 q 191 767 200 816 q 170 664 182 717 q 144 558 158 611 q 116 455 130 505 q 88 360 102 404 m 216 402 q 224 333 216 362 q 250 276 232 304 q 293 233 269 248 q 343 219 318 219 q 346 246 345 230 q 347 284 347 263 q 339 372 347 333 q 320 438 332 411 q 294 477 307 465 q 263 488 280 488 q 228 467 240 488 q 216 402 216 447 m 165 910 q 162 932 165 924 q 151 940 158 940 q 137 925 143 940 q 123 873 130 909 q 110 790 115 837 q 99 689 104 742 q 93 598 94 636 q 92 508 92 560 q 120 622 109 581 q 141 722 130 663 q 158 833 151 781 q 165 910 164 886 "},"D":{"x_min":-139.3125,"x_max":980.03125,"ha":959,"o":"m 389 1138 q 632 1095 523 1138 q 818 975 741 1052 q 937 793 895 899 q 980 562 980 687 q 964 406 980 481 q 919 264 948 330 q 848 143 890 198 q 752 48 805 88 q 637 -16 699 8 q 504 -41 576 -41 q 354 -24 431 -41 q 219 4 278 -7 q 170 -23 194 -10 q 112 -42 147 -36 q 52 -51 78 -48 q 4 -55 27 -55 q -100 -36 -63 -55 q -138 13 -138 -17 q -129 58 -142 41 q -92 87 -115 75 q -35 104 -68 100 q 46 106 -2 107 q 141 97 99 105 q 225 83 184 89 l 240 107 q 262 144 255 124 q 273 204 269 163 q 277 306 276 246 q 278 451 278 366 q 275 600 278 534 q 277 708 273 666 q 289 780 281 750 q 311 834 297 809 q 346 883 325 859 q 396 938 367 907 l 438 893 q 414 858 423 878 q 402 809 406 837 q 397 745 398 781 q 396 665 396 710 l 396 283 q 390 204 396 239 q 369 145 385 169 q 341 105 353 120 q 307 71 328 89 q 377 56 339 65 q 434 44 415 48 q 486 38 453 40 q 549 37 519 37 q 641 69 598 48 q 723 137 685 91 q 784 240 762 183 q 819 345 806 297 q 835 459 832 394 q 839 596 839 525 q 809 796 839 708 q 721 943 778 885 q 590 1027 665 1000 q 408 1065 514 1054 q 271 1052 329 1065 q 175 1023 212 1040 q 113 982 137 1007 q 70 932 88 958 q 45 887 51 906 q 35 845 38 869 q 39 790 35 805 q 55 756 42 774 q 93 725 69 737 q 176 712 118 713 q 198 713 189 712 q 213 718 207 715 q 225 724 220 720 l 236 668 q 201 655 225 660 q 132 645 177 649 q 56 659 91 645 q -4 698 21 674 q -44 756 -29 723 q -59 825 -59 788 q -25 945 -59 888 q 67 1044 7 1001 q 209 1113 126 1087 q 389 1138 291 1138 m -23 40 q -39 39 -33 40 q -55 37 -44 38 q -72 30 -65 35 q -79 14 -79 25 q -59 -2 -69 -2 q 4 -8 -49 -2 q 69 0 44 -2 q 132 21 94 2 q 59 35 103 29 q -23 40 14 41 "},"z":{"x_min":-6.78125,"x_max":514.09375,"ha":486,"o":"m 388 417 q 370 343 388 381 q 324 271 352 306 q 264 207 295 237 q 199 157 233 178 q 252 112 228 139 q 293 61 276 84 q 336 108 312 82 q 384 166 360 134 q 431 232 408 197 q 474 305 454 267 l 480 320 l 514 284 l 507 270 q 463 195 487 231 q 414 128 439 160 q 363 67 388 96 q 315 13 337 39 q 333 -47 326 -14 q 340 -118 340 -79 q 329 -224 340 -180 q 298 -295 318 -267 q 252 -335 279 -322 q 194 -347 225 -347 q 130 -323 155 -347 q 99 -255 104 -299 q 108 -188 99 -216 q 135 -129 118 -160 q 176 -67 153 -99 q 226 -1 199 -35 q 210 43 223 17 q 185 86 198 68 q 159 114 172 103 q 137 128 147 124 q 92 118 108 118 q 54 128 69 118 q 40 151 40 139 q 55 183 40 172 q 95 194 71 194 q 118 191 106 194 q 144 185 130 189 q 204 224 177 202 q 253 277 232 246 q 286 342 274 308 q 298 409 298 377 q 293 448 298 430 q 280 478 288 465 q 259 495 271 490 q 225 501 246 501 q 170 482 196 501 q 123 435 144 463 q 83 372 101 406 q 48 305 65 337 l 27 263 l -6 291 l 13 333 q 51 406 30 368 q 100 478 73 445 q 163 533 128 512 q 242 555 198 555 q 303 544 276 555 q 349 516 330 534 q 378 472 368 497 q 388 417 388 447 m 248 -152 q 246 -103 248 -126 q 241 -61 244 -80 q 170 -164 198 -115 q 143 -246 143 -212 q 155 -287 143 -274 q 187 -301 167 -301 q 209 -296 198 -301 q 229 -278 220 -291 q 243 -235 238 -265 q 248 -152 248 -204 "},"w":{"x_min":-4.0625,"x_max":702.640625,"ha":675,"o":"m 103 0 q 51 17 71 0 q 18 66 30 35 q 1 136 6 96 q -4 219 -4 176 q 1 343 -4 288 q 14 437 6 398 q 29 500 21 477 q 40 527 36 522 q 52 539 44 533 q 68 548 60 544 q 84 553 76 551 q 98 555 92 555 q 120 549 113 555 q 126 527 126 543 q 123 513 125 527 q 117 476 120 499 q 109 420 113 452 q 102 354 105 389 q 97 282 99 318 q 95 212 95 246 q 97 156 95 182 q 104 111 99 130 q 117 80 109 91 q 137 69 125 69 q 160 85 149 69 q 181 126 171 101 q 198 183 190 151 q 213 247 206 215 q 226 308 220 279 q 236 356 231 337 q 246 375 238 366 q 265 389 254 383 q 288 399 276 396 q 311 402 300 402 q 322 397 319 402 q 324 381 324 392 q 332 263 324 320 q 353 160 339 205 q 386 89 367 115 q 424 65 405 62 q 455 77 440 65 q 480 108 469 90 q 498 148 491 127 q 507 185 505 169 q 461 220 485 194 q 420 279 438 245 q 392 354 402 314 q 381 434 381 394 q 386 478 381 457 q 401 517 391 500 q 425 544 411 534 q 461 555 440 555 q 508 538 488 555 q 541 492 528 521 q 561 425 554 463 q 568 345 568 387 q 564 276 568 314 q 555 214 560 238 l 568 214 q 622 233 598 212 q 664 290 647 254 l 671 304 l 702 284 l 695 270 q 639 200 674 227 q 556 173 604 173 l 547 173 q 522 105 537 137 q 490 50 508 73 q 448 13 471 27 q 401 0 426 0 q 350 11 372 0 q 311 42 328 23 q 284 85 295 61 q 266 135 273 109 q 255 179 259 160 q 250 216 252 197 q 244 169 248 191 q 231 122 239 147 q 211 72 223 96 q 184 31 200 48 q 147 7 167 15 q 103 0 126 0 m 430 437 q 436 373 430 406 q 456 311 443 340 q 486 259 469 282 q 518 224 503 237 q 520 241 519 232 q 521 261 520 249 q 521 284 521 273 q 522 304 522 295 q 517 378 522 342 q 503 441 512 413 q 484 481 495 469 q 458 493 473 493 q 444 490 448 493 q 436 480 440 486 q 431 461 432 473 q 430 437 430 448 "},"$":{"x_min":76.640625,"x_max":617.859375,"ha":701,"o":"m 310 142 q 226 163 270 147 q 149 204 182 179 q 96 259 115 228 q 76 324 76 290 q 82 360 76 343 q 97 392 88 377 q 118 418 106 406 q 143 440 130 430 q 209 480 172 463 l 228 442 q 199 412 211 430 q 177 377 187 396 q 166 328 166 358 q 174 281 166 301 q 202 243 183 261 q 250 212 221 226 q 307 198 278 199 l 311 533 q 240 574 279 551 q 171 624 202 596 q 123 687 141 652 q 104 768 104 722 q 122 864 104 822 q 169 934 139 905 q 236 984 198 964 q 311 1011 274 1005 l 311 1103 l 360 1100 l 360 1012 q 369 1013 365 1013 q 379 1013 373 1013 q 455 1003 418 1013 q 520 975 492 994 q 566 929 549 956 q 583 865 583 902 q 577 825 583 843 q 561 790 571 806 q 539 761 552 774 q 514 738 526 748 q 445 698 483 714 l 421 725 q 457 763 440 741 q 481 806 470 781 q 493 861 493 830 q 483 912 493 895 q 454 943 474 929 q 411 964 435 957 q 360 970 387 970 l 360 626 q 452 577 406 602 q 534 523 497 553 q 594 457 571 494 q 617 368 617 419 q 600 285 617 325 q 551 214 583 245 q 470 163 518 183 q 360 143 422 144 l 360 0 l 311 3 l 310 142 m 534 323 q 520 382 534 356 q 482 430 505 408 q 426 471 458 452 q 360 508 395 490 l 361 196 q 433 205 400 197 q 489 230 465 214 q 523 269 512 246 q 534 323 534 292 m 173 825 q 185 768 173 794 q 216 721 196 743 q 262 682 236 700 q 311 650 288 663 l 309 968 q 260 950 282 963 q 217 920 238 937 q 185 880 197 902 q 173 825 173 858 "},"™":{"x_min":83.421875,"x_max":864.0625,"ha":931,"o":"m 454 565 l 454 986 l 523 986 l 615 697 l 689 986 l 762 986 q 754 883 757 934 q 748 792 750 840 q 746 706 746 744 q 753 634 746 659 q 780 608 761 608 q 803 618 792 608 q 822 639 814 628 q 838 670 830 653 l 864 662 q 832 609 851 632 q 793 572 817 588 q 739 555 770 555 q 706 565 719 555 q 686 593 693 575 q 676 634 678 611 q 673 683 673 657 q 675 745 673 714 q 680 805 678 777 l 616 565 l 567 565 l 489 805 l 489 565 l 454 565 m 83 921 q 93 953 83 940 q 121 973 103 966 q 161 983 138 980 q 210 986 185 986 l 397 986 l 397 669 q 389 615 397 636 q 367 580 381 593 q 335 561 354 567 q 295 555 316 555 q 257 562 276 555 q 224 582 238 569 q 200 617 209 596 q 191 666 191 638 l 218 666 q 223 635 218 649 q 237 611 228 621 q 257 597 246 602 q 279 592 267 592 q 310 605 301 592 q 320 648 320 617 q 320 741 320 697 q 320 821 320 785 q 320 882 320 857 q 319 916 320 906 l 234 916 q 162 907 187 916 q 136 878 136 897 q 146 855 136 866 q 167 837 155 845 q 198 820 181 828 l 190 796 q 137 827 160 809 q 100 866 116 843 q 83 921 83 889 "},"\\":{"x_min":-27.8125,"x_max":335.046875,"ha":199,"o":"m -27 1064 l 21 1076 l 335 -91 l 286 -104 l -27 1064 "},"~":{"x_min":-21.03125,"x_max":326.21875,"ha":313,"o":"m -21 333 q -6 388 -17 364 q 22 426 3 409 q 75 444 42 444 q 118 437 96 444 q 162 423 140 431 q 206 409 185 415 q 249 402 228 402 q 274 409 265 402 q 289 423 284 415 q 298 444 295 432 l 326 444 q 311 388 322 413 q 282 350 301 367 q 229 333 262 333 q 186 340 208 333 q 141 354 164 346 q 97 368 119 362 q 55 375 75 375 q 30 368 40 375 q 15 354 21 361 q 6 333 9 345 l -21 333 "},"-":{"x_min":-17.640625,"x_max":315.375,"ha":300,"o":"m -17 416 l 315 416 l 315 360 l -17 360 l -17 416 "},"Q":{"x_min":0,"x_max":979.359375,"ha":952,"o":"m 694 -96 q 646 -89 670 -96 q 596 -70 621 -82 q 546 -44 571 -59 q 497 -13 521 -29 q 381 -34 444 -34 q 282 -10 320 -34 q 244 50 244 13 q 269 110 244 86 q 360 132 295 133 q 457 112 409 132 q 550 69 505 93 q 625 160 591 105 q 684 284 659 214 q 722 440 708 354 q 735 625 735 526 q 714 837 735 747 q 655 976 693 927 q 564 1053 617 1026 q 446 1080 512 1080 q 348 1066 389 1080 q 265 1013 308 1052 q 193 924 221 975 q 146 810 164 874 q 120 674 128 746 q 111 527 111 602 q 126 365 111 440 q 162 241 142 290 q 212 150 181 192 q 265 88 243 107 l 252 46 q 177 91 204 65 q 126 146 149 117 q 80 213 103 174 q 40 303 58 252 q 11 417 22 354 q 0 556 0 480 q 16 713 0 638 q 63 852 33 788 q 134 970 93 917 q 225 1060 176 1022 q 330 1118 275 1098 q 444 1138 386 1138 q 558 1121 505 1138 q 657 1071 612 1103 q 737 994 701 1039 q 796 894 772 949 q 834 776 821 839 q 847 645 847 713 q 829 462 847 552 q 779 294 811 373 q 700 151 746 215 q 597 42 654 86 q 655 14 634 22 q 704 0 676 7 q 756 22 734 0 q 805 81 778 44 q 861 173 832 119 q 925 295 891 227 l 931 309 l 979 284 l 972 270 q 898 125 933 192 q 829 8 863 58 q 763 -68 796 -40 q 694 -96 729 -96 m 307 40 q 325 20 309 27 q 375 8 341 12 q 444 12 405 3 q 393 45 421 31 q 340 58 364 58 q 317 54 324 58 q 307 40 309 50 "},"M":{"x_min":-177.015625,"x_max":1169.9375,"ha":1129,"o":"m 350 1137 q 373 1060 360 1111 q 403 942 387 1009 q 437 796 419 874 q 473 636 455 717 q 509 475 491 554 q 541 328 526 396 q 559 233 556 260 q 570 170 563 206 q 603 261 594 234 q 635 353 611 287 q 683 494 658 419 q 735 643 709 568 q 788 793 761 719 q 838 933 814 867 q 885 1054 863 999 q 925 1148 907 1110 l 1010 1130 q 986 1031 998 1087 q 962 908 973 974 q 941 769 951 842 q 923 622 931 696 q 911 476 916 548 q 907 337 907 403 q 920 150 907 209 q 956 87 933 91 q 989 101 973 87 q 1023 141 1005 114 q 1062 209 1041 168 q 1109 302 1083 249 l 1116 316 l 1169 284 l 1163 270 q 1102 152 1129 202 q 1050 67 1075 101 q 1001 16 1026 33 q 947 0 976 0 q 879 20 906 0 q 835 76 852 40 q 812 166 819 113 q 805 286 805 219 q 812 438 805 358 q 830 593 819 518 q 852 732 841 668 q 871 838 863 796 l 565 -34 l 510 -21 q 501 39 510 -6 q 478 152 492 86 q 445 298 463 218 q 408 458 427 377 q 314 864 364 648 q 318 765 316 815 q 319 682 320 722 q 318 600 318 642 q 304 382 318 477 q 267 217 290 287 q 211 99 243 147 q 143 21 179 50 q 70 -20 107 -7 q -3 -33 32 -33 q -70 -21 -39 -33 q -125 11 -102 -9 q -163 62 -149 33 q -177 124 -177 90 q -163 201 -177 164 q -127 270 -150 238 q -71 330 -103 302 q -3 381 -40 358 l 35 347 q -12 306 9 329 q -49 258 -33 284 q -73 203 -65 231 q -82 147 -82 175 q -79 105 -82 120 q -63 73 -75 90 q -28 47 -50 57 q 21 37 -6 37 q 73 48 50 37 q 125 87 96 60 q 180 160 153 115 q 223 269 206 205 q 251 423 240 334 q 263 628 263 512 q 263 706 263 661 q 260 799 263 750 q 252 896 257 848 q 243 987 248 945 q 234 1062 239 1030 q 224 1109 229 1094 l 350 1137 "},"C":{"x_min":-7.453125,"x_max":784.703125,"ha":749,"o":"m 103 515 q 131 302 103 393 q 203 159 159 211 q 302 82 248 107 q 419 56 357 56 q 507 73 463 56 q 587 121 552 90 q 658 197 621 151 q 729 309 696 243 l 736 323 l 784 284 l 777 270 q 694 138 739 195 q 598 43 649 81 q 493 -14 548 4 q 381 -34 438 -34 q 285 -20 333 -34 q 194 21 237 -6 q 114 92 151 49 q 50 192 77 134 q 7 321 23 249 q -7 480 -7 394 q 11 688 -7 595 q 64 854 31 781 q 140 981 96 927 q 232 1069 184 1034 q 330 1121 280 1104 q 427 1138 381 1138 q 538 1118 487 1138 q 626 1059 589 1097 q 683 968 662 1022 q 704 848 704 914 q 684 729 704 785 q 633 629 665 674 q 559 561 601 584 q 472 537 518 537 q 412 549 442 537 q 360 582 382 560 q 326 633 338 604 q 315 696 315 661 q 325 760 315 729 q 351 817 335 791 q 385 863 366 843 q 421 895 404 883 l 461 871 q 435 836 447 855 q 413 796 422 817 q 398 750 403 775 q 392 697 392 726 q 398 652 392 668 q 416 624 404 636 q 442 604 427 613 q 475 596 457 596 q 525 613 500 596 q 565 659 550 630 q 592 740 581 689 q 604 861 604 792 q 592 966 604 923 q 559 1032 580 1009 q 510 1068 538 1055 q 432 1085 482 1081 q 360 1072 389 1083 q 298 1041 331 1062 q 231 978 264 1019 q 170 871 198 937 q 123 718 143 806 q 103 515 103 630 "},"[":{"x_min":-7.453125,"x_max":145.8125,"ha":119,"o":"m 90 0 l 145 0 l 145 -34 l -7 -34 l -7 1180 l 145 1180 l 145 1146 l 90 1146 l 90 0 "},"L":{"x_min":-111.765625,"x_max":811.828125,"ha":555,"o":"m 430 790 q 492 865 466 821 q 520 951 517 908 q 514 990 518 977 q 493 1025 510 1004 q 454 1058 476 1045 q 404 1070 432 1070 q 360 1062 381 1070 q 326 1040 339 1054 q 298 1002 314 1026 q 283 937 283 978 q 289 838 283 895 q 304 711 296 781 q 319 559 312 640 q 325 388 325 478 q 317 301 325 342 q 295 225 309 260 q 262 160 281 189 q 219 105 242 130 q 294 67 257 88 q 367 24 331 46 q 440 -16 403 3 q 513 -51 476 -36 q 589 -71 550 -65 q 671 -78 628 -78 q 796 -54 752 -78 l 811 -80 q 772 -106 797 -92 q 717 -132 748 -120 q 651 -152 686 -144 q 582 -160 617 -160 q 446 -139 508 -160 q 330 -88 383 -118 q 232 -22 278 -57 q 151 35 187 12 q 71 -1 111 10 q -2 -13 31 -13 q -53 -3 -31 -13 q -87 18 -75 7 q -104 47 -99 30 q -110 77 -110 64 q -105 109 -114 94 q -76 138 -95 124 q -31 159 -56 151 q 24 166 -6 166 q 93 160 61 166 q 157 144 126 153 q 198 235 182 183 q 214 368 214 286 q 207 531 214 457 q 193 669 201 604 q 179 794 185 734 q 172 916 172 854 q 192 1013 172 971 q 244 1083 212 1055 q 315 1124 276 1110 q 394 1138 355 1138 q 475 1125 438 1138 q 539 1088 512 1111 q 581 1033 566 1064 q 596 965 596 1001 q 583 891 596 925 q 551 829 570 857 q 508 779 531 800 q 464 743 485 757 l 430 790 m -8 38 q 42 44 17 38 q 97 77 67 50 q 50 93 73 85 q 2 101 27 101 q -41 94 -27 101 q -62 67 -55 87 q -42 45 -52 50 q -8 38 -32 40 "},"!":{"x_min":83.421875,"x_max":222.453125,"ha":292,"o":"m 83 62 q 88 86 83 75 q 101 106 92 98 q 120 120 109 115 q 145 124 132 124 q 170 120 158 124 q 190 106 181 115 q 203 86 198 98 q 208 62 208 75 q 203 37 208 49 q 190 17 198 26 q 170 4 181 9 q 145 0 158 0 q 121 4 132 0 q 101 17 109 9 q 88 37 92 26 q 83 62 83 49 m 132 931 q 140 950 132 942 q 157 964 147 959 q 178 972 167 969 q 194 975 188 975 q 214 970 206 975 q 222 942 222 965 q 220 886 222 922 q 213 803 217 850 q 205 701 210 756 q 195 590 200 647 q 185 478 190 533 q 176 375 180 423 q 170 288 172 326 q 166 229 167 250 l 132 230 q 130 445 132 338 q 128 662 128 552 q 129 796 128 729 q 132 931 129 862 "}," ":{"x_min":0,"x_max":0,"ha":319},"{":{"x_min":-58.328125,"x_max":293,"ha":241,"o":"m -58 583 q 14 589 -14 583 q 61 606 44 595 q 86 633 79 617 q 94 666 94 648 q 85 741 94 697 q 66 834 76 785 q 47 936 56 884 q 38 1034 38 988 q 50 1101 38 1075 q 81 1140 61 1126 q 127 1160 101 1155 q 181 1165 153 1165 q 238 1162 210 1165 q 293 1157 267 1159 l 291 1129 l 246 1130 q 206 1127 227 1131 q 168 1112 185 1123 q 140 1078 151 1100 q 128 1020 128 1056 q 136 936 128 982 q 152 847 143 891 q 169 763 162 803 q 177 694 177 722 q 149 615 177 647 q 70 569 122 583 q 149 523 122 554 q 177 444 177 491 q 169 375 177 415 q 152 291 162 335 q 136 202 143 247 q 128 118 128 157 q 140 60 128 82 q 168 26 151 38 q 206 11 185 14 q 246 8 227 7 l 291 9 l 293 -18 q 234 -24 263 -21 q 177 -26 204 -26 q 123 -21 148 -26 q 79 -1 97 -16 q 49 38 60 12 q 38 104 38 63 q 47 202 38 151 q 66 303 56 254 q 85 397 76 353 q 94 472 94 440 q 86 505 94 490 q 61 532 79 520 q 14 549 44 543 q -58 555 -14 555 l -58 583 "},"X":{"x_min":-54.265625,"x_max":958.328125,"ha":787,"o":"m 111 1130 q 151 1122 133 1130 q 188 1094 170 1115 q 227 1037 206 1073 q 276 944 248 1001 q 340 809 303 888 q 415 648 377 729 q 510 847 472 758 q 588 995 548 936 q 672 1084 627 1054 q 787 1104 716 1113 l 834 1093 l 822 996 q 802 1000 812 998 q 787 1001 793 1001 q 765 1001 781 1001 q 711 994 735 1001 q 666 969 688 987 q 626 913 644 950 q 583 827 608 876 q 530 708 559 777 q 472 562 501 639 q 522 455 493 514 q 579 342 551 396 q 635 243 608 288 q 688 164 663 197 q 729 116 714 130 q 764 103 744 103 q 789 121 777 109 q 817 166 800 134 q 852 236 834 198 q 885 306 869 274 l 892 320 l 958 284 l 951 270 q 898 163 923 212 q 849 77 874 113 q 796 20 824 41 q 729 0 767 0 q 641 36 682 0 q 560 135 600 73 q 482 275 521 196 q 402 427 442 354 q 318 262 362 343 q 224 119 273 182 q 124 23 176 56 q 23 -9 73 -9 q -9 -6 4 -9 q -33 0 -23 -3 q -54 9 -46 4 l -41 146 q 34 125 0 125 q 95 144 65 125 q 155 193 126 162 q 211 266 184 225 q 263 352 238 307 q 310 443 288 397 q 351 531 332 489 q 270 715 310 625 q 202 868 230 805 q 153 966 174 931 q 121 1018 133 1001 q 104 1039 109 1034 q 85 1044 99 1043 q 59 1026 68 1036 q 38 998 49 1017 q 18 960 27 980 q 4 927 9 940 l -48 963 q -25 1022 -39 992 q 8 1076 -11 1051 q 53 1115 27 1100 q 111 1130 78 1130 "},"P":{"x_min":-7.453125,"x_max":881.6875,"ha":826,"o":"m 360 160 q 339 70 353 107 q 304 9 324 33 q 258 -24 284 -13 q 200 -34 231 -34 q 118 -8 156 -34 q 52 67 80 16 q 8 193 24 118 q -7 368 -7 269 q 12 569 -7 472 q 69 752 32 667 q 158 909 106 838 q 274 1030 210 980 q 413 1109 338 1081 q 569 1137 487 1137 q 696 1116 638 1137 q 795 1058 754 1095 q 859 969 836 1020 q 881 859 881 918 q 862 727 881 788 q 807 615 842 666 q 724 524 772 564 q 619 456 676 484 q 500 413 562 428 q 373 396 437 398 q 368 253 370 311 q 360 160 366 195 m 241 474 q 249 472 244 473 q 259 469 253 470 q 273 466 265 467 q 271 591 273 520 q 267 715 269 662 q 263 872 265 822 q 274 878 268 876 q 287 883 280 881 q 305 885 295 885 q 356 874 337 885 q 375 836 375 863 q 374 590 374 679 q 374 461 374 501 q 528 486 460 461 q 652 561 596 512 q 735 685 708 611 q 763 840 763 759 q 752 931 763 891 q 713 1005 741 970 q 639 1058 685 1041 q 535 1074 594 1074 q 423 1050 476 1074 q 320 986 369 1026 q 227 879 271 946 q 144 732 183 813 q 87 540 105 651 q 69 298 69 430 q 76 187 69 241 q 95 104 84 133 q 129 48 106 74 q 187 23 153 23 q 221 30 205 23 q 254 64 238 37 q 273 120 269 90 q 277 222 277 149 q 276 313 277 268 q 276 401 276 358 q 258 404 265 402 q 245 408 250 406 q 235 412 239 410 l 241 474 "},"%":{"x_min":-18.984375,"x_max":680.9375,"ha":644,"o":"m 537 794 q 484 778 514 784 q 419 773 454 773 q 348 779 379 773 q 308 795 318 786 q 315 763 311 786 q 319 715 319 740 q 307 622 319 668 q 273 546 295 575 q 215 503 251 518 q 143 489 179 489 q 75 505 106 489 q 23 553 44 522 q -8 632 2 583 q -18 727 -18 680 q -6 813 -18 773 q 27 881 5 852 q 84 927 50 910 q 155 944 119 944 q 228 924 195 944 q 284 870 261 905 q 341 830 305 842 q 430 819 377 819 q 486 823 461 819 q 530 833 511 827 q 563 847 549 839 q 589 862 578 855 l 613 897 l 672 841 l 83 0 l 23 55 l 537 794 m 510 16 q 435 30 474 10 q 374 83 396 49 q 340 156 352 117 q 328 272 328 196 q 341 359 328 319 q 374 428 353 398 q 428 475 396 458 q 498 493 461 493 q 588 474 546 495 q 649 416 630 453 q 675 337 669 380 q 680 246 680 293 q 669 156 680 200 q 635 83 657 112 q 580 35 613 54 q 510 16 547 16 m 153 547 q 195 560 179 547 q 220 592 211 574 q 233 642 229 609 q 236 715 236 676 q 233 787 236 754 q 220 844 229 820 q 195 882 211 868 q 153 895 179 895 q 110 882 126 895 q 85 844 94 868 q 72 787 75 820 q 69 715 69 754 q 72 642 69 676 q 85 592 75 609 q 110 560 94 574 q 153 547 126 547 m 508 66 q 550 80 534 66 q 576 117 567 93 q 588 174 585 141 q 591 246 591 208 q 588 319 591 286 q 576 376 585 352 q 550 414 567 400 q 508 427 534 427 q 465 414 482 427 q 440 376 449 400 q 428 319 431 352 q 425 246 425 286 q 428 174 425 208 q 440 117 431 141 q 465 80 449 93 q 508 66 482 66 "},"#":{"x_min":-21.703125,"x_max":478.140625,"ha":458,"o":"m 464 472 q 474 461 470 472 q 478 438 478 450 q 473 424 478 427 q 461 421 467 421 q 420 421 451 421 q 337 422 389 422 q 337 372 337 392 q 337 339 337 352 q 338 316 337 325 q 339 298 338 306 q 327 287 339 290 q 305 284 316 284 q 291 289 294 284 q 288 301 288 295 q 288 342 288 311 q 289 422 289 373 q 226 423 257 423 q 164 423 194 423 q 164 373 164 393 q 164 339 164 353 q 164 316 164 325 q 165 298 164 306 q 154 287 165 290 q 132 284 143 284 q 117 289 120 284 q 114 301 114 295 q 115 342 114 311 q 115 425 115 373 q 66 425 86 425 q 32 425 46 425 q 9 424 18 425 q -8 423 0 424 q -18 435 -15 423 q -21 457 -21 446 q -16 471 -21 468 q -5 474 -11 474 q 35 474 5 474 q 115 473 66 473 q 117 535 117 503 q 117 598 117 567 q 66 598 86 598 q 32 598 46 598 q 9 598 18 598 q -8 597 0 598 q -18 608 -15 597 q -21 630 -21 619 q -16 645 -21 642 q -5 648 -11 648 q 36 647 5 648 q 118 647 67 647 q 118 696 118 676 q 118 730 118 716 q 118 753 118 744 q 117 771 118 763 q 128 780 117 777 q 150 784 139 784 q 165 779 162 784 q 168 768 168 774 q 167 727 168 757 q 166 645 166 696 q 228 645 197 645 q 292 644 260 645 q 292 695 292 674 q 292 729 292 715 q 291 753 292 744 q 290 771 291 763 q 301 780 290 777 q 324 784 312 784 q 338 779 335 784 q 341 768 341 774 q 341 726 341 757 q 340 644 340 695 q 389 644 369 644 q 423 644 409 644 q 446 644 437 644 q 464 645 456 644 q 474 634 470 645 q 478 612 478 623 q 473 597 478 600 q 461 594 467 594 q 420 595 451 594 q 339 596 389 596 q 339 532 339 564 q 337 470 339 501 q 388 470 368 470 q 423 470 408 470 q 446 471 437 470 q 464 472 456 471 m 165 597 q 165 535 165 567 q 164 472 165 503 q 227 472 196 472 q 289 470 259 472 q 290 534 290 502 q 290 596 290 565 q 228 597 260 597 q 165 597 197 597 "},"_":{"x_min":-37.296875,"x_max":372.34375,"ha":351,"o":"m -37 55 l 372 55 l 372 0 l -37 0 l -37 55 "},"+":{"x_min":-17.640625,"x_max":378.453125,"ha":359,"o":"m 211 590 l 211 416 l 378 416 l 378 360 l 211 360 l 211 180 l 149 180 l 149 360 l -17 360 l -17 416 l 149 416 l 149 590 l 211 590 "},")":{"x_min":-21.703125,"x_max":308.59375,"ha":292,"o":"m -5 1130 q 45 1105 14 1123 q 111 1054 76 1086 q 181 974 145 1022 q 244 863 216 927 q 290 715 273 798 q 308 527 308 632 q 290 340 308 423 q 244 192 273 257 q 181 80 216 127 q 111 1 145 33 q 45 -49 76 -31 q -5 -75 14 -68 l -20 -28 q 14 -7 -7 -23 q 61 38 36 8 q 112 112 86 67 q 160 219 139 157 q 196 354 181 280 q 211 527 211 427 q 198 708 211 628 q 161 841 185 788 q 111 938 137 893 q 60 1013 85 983 q 13 1059 35 1043 q -21 1080 -8 1075 l -5 1130 "},"'":{"x_min":55.609375,"x_max":132.25,"ha":187,"o":"m 118 729 l 69 729 l 55 951 l 132 951 l 118 729 "},"}":{"x_min":-38.65625,"x_max":312.65625,"ha":229,"o":"m 312 555 q 239 549 268 555 q 192 532 210 543 q 167 505 174 520 q 160 472 160 490 q 168 397 160 440 q 187 303 177 353 q 206 202 198 254 q 215 104 215 151 q 204 38 215 63 q 175 -1 193 12 q 131 -21 156 -16 q 76 -26 105 -26 q 20 -24 49 -26 q -38 -18 -9 -21 l -37 9 l 7 8 q 47 11 27 7 q 85 26 68 14 q 114 60 103 38 q 125 118 125 82 q 117 202 125 157 q 100 291 109 247 q 84 375 91 335 q 76 444 76 415 q 104 523 76 491 q 183 569 132 554 q 104 615 132 583 q 76 694 76 647 q 84 763 76 722 q 100 847 91 803 q 117 936 109 891 q 125 1020 125 982 q 114 1078 125 1056 q 85 1112 103 1100 q 47 1127 68 1123 q 7 1130 27 1131 l -37 1129 l -38 1157 q 15 1162 -12 1159 q 71 1165 44 1165 q 126 1160 100 1165 q 172 1140 152 1155 q 203 1101 191 1126 q 215 1034 215 1075 q 206 936 215 988 q 187 834 198 884 q 168 741 177 785 q 160 666 160 697 q 167 633 160 648 q 192 606 174 617 q 239 589 210 595 q 312 583 268 583 l 312 555 "},"a":{"x_min":-16.953125,"x_max":627.359375,"ha":593,"o":"m 411 168 q 417 108 411 129 q 436 94 423 87 q 458 104 446 94 q 485 136 470 113 q 521 194 501 158 q 567 281 541 229 l 587 323 l 627 297 l 600 242 q 546 140 571 185 q 499 64 522 95 q 456 16 477 33 q 413 0 434 0 q 376 12 391 0 q 350 43 360 24 q 334 81 340 62 q 326 132 328 101 q 293 79 310 100 q 255 39 276 57 q 208 10 233 20 q 160 0 183 0 q 94 14 126 0 q 37 57 62 28 q -2 131 12 86 q -16 236 -16 175 q 1 365 -16 306 q 50 466 19 423 q 122 532 82 508 q 208 555 163 555 q 258 546 235 555 q 299 524 282 538 q 328 495 316 510 q 345 466 341 480 l 351 510 q 363 531 352 522 q 388 545 375 540 q 415 553 402 550 q 433 555 427 555 q 444 552 441 555 q 446 541 446 550 q 441 500 446 531 q 428 422 435 470 q 416 309 422 374 q 411 168 411 245 m 336 347 q 326 408 336 378 q 303 458 317 438 q 265 491 288 477 q 217 505 241 505 q 162 490 188 505 q 118 447 136 475 q 90 378 101 420 q 79 284 79 335 q 111 129 79 183 q 194 90 143 76 q 242 108 217 90 q 287 162 267 127 q 322 240 308 197 q 336 347 336 284 "},"T":{"x_min":-88.84375,"x_max":834.890625,"ha":765,"o":"m 616 805 q 623 671 616 736 q 640 540 631 605 q 657 408 649 475 q 665 267 665 341 q 647 143 665 199 q 588 47 628 87 q 485 -13 548 8 q 335 -34 423 -34 q 223 -18 276 -34 q 130 27 170 -2 q 67 96 90 56 q 43 187 43 137 q 55 252 43 223 q 85 304 67 282 q 127 343 104 327 q 171 370 149 360 q 210 387 193 381 q 237 396 228 394 l 252 354 q 218 332 237 346 q 179 299 198 318 q 150 254 160 280 q 140 187 140 228 q 155 113 140 143 q 197 62 170 83 q 261 28 224 41 q 342 16 298 16 q 428 27 387 16 q 504 64 470 38 q 553 125 538 89 q 568 226 568 162 q 561 355 568 290 q 545 485 554 420 q 530 617 537 551 q 523 751 523 683 q 530 859 523 810 q 550 952 536 908 q 440 972 496 961 q 329 993 383 983 q 227 1010 276 1003 q 140 1018 179 1018 q 53 1009 88 1018 q 0 989 18 1001 q -27 962 -19 977 q -34 925 -34 946 q -25 888 -34 904 q 2 858 -15 872 q 44 839 21 845 q 99 832 67 832 q 160 840 133 832 q 206 857 187 848 q 242 876 228 868 l 258 837 q 212 809 237 822 q 161 790 190 798 q 98 781 132 781 q 17 794 52 781 q -40 827 -16 806 q -76 875 -64 847 q -88 934 -88 903 q -77 999 -88 967 q -40 1054 -66 1030 q 28 1093 -14 1079 q 133 1108 71 1108 q 249 1099 191 1108 q 363 1076 307 1089 q 474 1048 420 1063 q 577 1020 528 1032 q 650 1106 607 1074 q 744 1138 693 1138 q 783 1131 766 1138 q 811 1112 800 1124 q 829 1086 823 1101 q 834 1053 834 1070 q 821 1004 834 1025 q 785 970 808 984 q 731 949 762 956 q 663 943 699 943 q 647 943 655 943 q 630 944 638 943 q 620 885 624 921 q 616 805 616 848 m 744 1093 q 691 1073 714 1093 q 645 1004 669 1053 q 681 1000 666 1001 q 717 1001 697 1000 q 749 1006 735 1001 q 769 1018 762 1011 q 779 1034 775 1024 q 784 1055 784 1045 q 774 1084 784 1074 q 744 1093 765 1093 "},"=":{"x_min":-17.640625,"x_max":364.203125,"ha":340,"o":"m -17 507 l 364 507 l 364 465 l -17 465 l -17 507 m -17 409 l 364 409 l 364 368 l -17 368 l -17 409 "},"N":{"x_min":-48.15625,"x_max":1020.046875,"ha":899,"o":"m 111 1156 q 178 1126 143 1156 q 242 1044 213 1097 q 293 913 270 992 q 326 755 316 835 q 429 624 375 693 q 541 485 483 556 q 650 356 599 415 q 761 229 701 297 q 698 548 712 401 q 682 804 685 695 q 709 951 693 889 q 752 1054 725 1013 q 815 1117 779 1096 q 894 1138 852 1138 q 949 1127 925 1138 q 988 1098 972 1117 q 1012 1056 1004 1080 q 1020 1007 1020 1032 q 1012 942 1020 972 q 997 890 1005 912 q 975 841 987 864 l 937 859 q 944 877 940 866 q 952 907 948 889 q 961 946 957 924 q 964 994 964 968 q 948 1054 964 1036 q 902 1072 933 1072 q 836 1050 861 1072 q 794 979 811 1028 q 769 865 777 931 q 761 725 761 800 q 773 576 767 653 q 789 424 779 500 q 813 276 800 347 q 848 129 826 204 l 936 34 l 854 -42 q 757 55 814 -4 q 633 190 699 115 q 494 353 567 265 q 352 534 422 440 q 361 452 359 495 q 364 358 364 409 q 341 196 364 263 q 283 85 319 128 q 204 20 248 41 q 118 0 160 0 q 54 11 84 0 q 1 45 24 23 q -34 100 -21 67 q -48 173 -48 132 q -17 295 -48 236 q 59 406 12 354 l 105 404 q 79 360 91 383 q 58 313 67 337 q 44 264 49 289 q 38 215 38 239 q 48 158 38 183 q 74 114 58 132 q 112 87 90 96 q 149 78 134 77 q 212 96 181 78 q 261 153 243 114 q 292 256 279 192 q 306 413 306 320 q 300 517 306 467 q 289 611 293 568 q 178 790 226 713 q 103 921 130 866 q 65 1011 75 975 q 54 1069 54 1046 q 69 1134 48 1112 q 111 1156 90 1156 m 108 1077 q 114 1055 108 1070 q 142 1008 120 1041 q 195 931 164 975 q 255 847 226 888 q 225 931 245 883 q 185 1016 205 980 q 150 1067 164 1053 q 122 1090 136 1082 q 108 1077 108 1090 "},"2":{"x_min":-22.375,"x_max":594.125,"ha":589,"o":"m -21 0 q -21 13 -21 6 q -22 26 -22 20 q -6 183 -22 112 q 46 305 9 254 q 126 398 83 356 q 223 473 168 440 q 331 534 277 506 q 422 601 385 562 q 482 685 459 639 q 503 775 505 731 q 487 846 503 807 q 444 912 472 885 q 382 953 416 940 q 305 967 349 967 q 208 947 252 967 q 138 897 164 927 q 99 843 112 868 q 83 786 86 818 q 93 739 84 754 q 112 712 102 724 q 138 696 123 700 q 173 692 152 692 q 218 699 196 692 q 259 718 240 706 l 295 680 q 271 647 285 665 q 237 615 257 629 q 192 593 217 601 q 141 585 168 585 q 87 595 113 585 q 41 624 61 604 q 9 675 21 644 q -2 750 -2 706 q 17 844 -2 794 q 78 936 38 894 q 176 1007 118 979 q 309 1034 234 1034 q 415 1013 364 1034 q 506 955 466 992 q 570 867 545 918 q 594 756 594 816 q 574 642 594 690 q 525 557 555 594 q 455 494 495 521 q 369 441 416 467 q 273 389 322 416 q 189 333 225 363 q 125 262 154 303 q 92 201 96 222 q 110 213 101 209 q 125 220 118 217 q 144 223 132 223 q 178 220 157 223 q 211 203 196 212 q 254 183 227 193 q 306 159 280 172 q 358 136 332 147 q 408 118 383 125 q 457 111 434 111 q 486 113 478 111 q 507 124 494 116 q 531 145 520 131 q 552 181 542 159 l 592 176 q 579 115 589 146 q 550 58 569 84 q 502 16 531 32 q 430 0 473 0 q 377 9 404 0 q 324 34 350 19 q 271 61 297 48 q 220 89 245 74 q 171 113 195 103 q 125 123 147 123 q 91 114 103 123 q 66 91 79 105 q 46 66 54 78 q 32 39 37 54 q 23 13 26 25 q 18 0 20 2 l -21 0 "},"j":{"x_min":-107.34375,"x_max":298.421875,"ha":271,"o":"m 41 527 q 55 540 45 535 q 76 549 65 545 q 97 554 87 552 q 111 555 107 555 q 129 549 126 555 q 132 527 132 543 l 132 101 q 201 198 166 146 q 263 304 236 250 l 270 318 l 298 284 l 291 270 q 259 213 278 243 q 219 152 240 183 q 176 89 198 122 q 132 29 153 56 l 132 -118 q 121 -224 132 -180 q 90 -295 109 -267 q 44 -335 70 -322 q -13 -347 17 -347 q -49 -341 -33 -347 q -78 -323 -66 -335 q -99 -294 -90 -311 q -107 -248 -108 -276 q -95 -187 -107 -218 q -64 -124 -84 -157 q -18 -57 -44 -92 q 38 13 8 -23 l 41 298 l 37 297 l 23 269 l -6 291 l 0 305 q 24 375 16 340 q 33 440 31 410 q 36 494 35 471 q 41 527 36 517 m -21 -305 q 1 -301 -10 -305 q 21 -281 12 -297 q 35 -235 29 -265 q 41 -152 41 -204 l 40 -58 q 5 -105 25 -78 q -27 -157 -13 -132 q -50 -206 -42 -183 q -58 -252 -58 -230 q -50 -287 -58 -274 q -21 -305 -42 -300 m 141 595 q 125 555 141 571 q 86 539 109 539 q 46 555 63 539 q 30 595 30 571 q 46 634 30 618 q 86 651 63 651 q 125 634 109 651 q 141 595 141 618 "},"Z":{"x_min":-94.953125,"x_max":877.625,"ha":838,"o":"m 285 582 l 391 582 q 422 652 404 611 q 463 744 440 693 q 512 845 486 794 q 567 941 537 896 q 482 966 533 950 q 378 998 431 983 q 272 1022 325 1013 q 170 1030 219 1030 q 105 1022 130 1030 q 66 1000 80 1013 q 50 974 53 986 q 47 941 47 961 q 53 909 47 922 q 74 884 60 896 q 104 866 88 871 q 151 862 120 862 q 198 869 175 859 q 238 887 221 878 q 272 912 257 898 l 293 868 q 252 840 275 852 q 208 820 233 829 q 152 812 183 812 q 83 823 113 812 q 32 854 52 834 q 1 898 12 873 q -8 951 -8 923 q 4 1021 -8 988 q 44 1081 16 1055 q 112 1123 71 1107 q 210 1138 153 1138 q 331 1125 273 1138 q 445 1093 390 1112 q 550 1054 500 1074 q 631 1028 600 1034 q 696 1080 662 1060 q 768 1099 729 1099 q 834 1081 807 1104 q 862 1028 862 1057 q 855 988 862 1008 q 830 952 849 968 q 786 927 812 937 q 720 916 759 916 q 672 919 696 916 q 630 927 647 922 q 577 836 602 885 q 529 737 552 787 q 490 647 507 687 q 460 582 472 606 l 575 582 l 553 514 l 431 514 q 339 329 385 418 q 240 169 293 240 q 324 138 280 155 q 412 105 368 121 q 500 79 456 90 q 591 69 544 69 q 659 85 635 69 q 709 132 684 102 q 759 203 733 162 q 815 302 784 244 l 823 316 l 877 284 l 870 270 q 807 151 838 207 q 740 54 777 96 q 657 -10 704 13 q 548 -34 611 -34 q 446 -22 497 -34 q 346 8 396 -10 q 250 46 297 26 q 158 83 202 67 q 73 21 118 43 q -19 0 29 0 q -74 17 -53 0 q -94 69 -94 35 q -83 112 -94 90 q -50 153 -72 134 q 4 183 -28 171 q 78 194 36 194 q 135 192 105 194 q 172 182 164 189 q 265 332 219 246 q 357 513 311 418 l 263 514 l 285 582 m -5 54 q 46 71 19 58 q 90 101 72 85 q 16 111 67 111 q -11 108 3 112 q -33 99 -27 105 q -42 88 -39 93 q -45 73 -45 82 q -35 59 -42 65 q -5 54 -27 52 m 773 1049 q 734 1039 755 1049 q 690 1008 713 1029 q 750 1000 720 1000 q 798 1008 788 1000 q 809 1028 809 1017 q 799 1043 809 1038 q 773 1049 790 1049 "},"u":{"x_min":-5.421875,"x_max":576.484375,"ha":549,"o":"m 276 136 q 266 117 273 130 q 251 90 260 104 q 229 59 242 75 q 199 30 217 42 q 161 9 181 18 q 115 0 140 0 q 74 8 95 0 q 35 37 53 16 q 6 97 17 59 q -5 194 -5 134 q -1 308 -5 251 q 8 413 2 366 q 19 493 14 461 q 27 531 25 524 q 38 542 30 537 q 57 550 46 547 q 79 554 67 552 q 98 555 90 555 q 115 550 109 555 q 122 531 122 544 q 119 507 122 525 q 113 463 117 489 q 106 406 110 438 q 99 343 103 375 q 93 279 96 311 q 91 222 91 248 q 105 121 91 148 q 156 94 120 94 q 218 135 187 94 q 279 254 249 177 q 285 332 282 290 q 291 412 288 374 q 296 479 294 449 q 301 522 299 509 q 311 538 303 531 q 331 548 320 544 q 353 553 343 552 q 369 555 364 555 q 385 550 381 555 q 389 534 389 545 q 388 498 389 524 q 384 435 386 471 q 379 359 381 400 q 374 281 376 318 q 369 212 371 243 q 368 166 368 182 q 370 100 368 120 q 391 80 373 80 q 419 97 404 80 q 452 143 434 113 q 491 214 470 173 q 537 304 512 255 l 543 318 l 576 284 l 569 270 q 512 155 537 206 q 465 70 487 105 q 419 17 442 35 q 368 0 396 0 q 324 10 341 0 q 297 39 307 20 q 281 80 286 58 q 276 136 276 101 "},"1":{"x_min":-6.78125,"x_max":446.265625,"ha":432,"o":"m 15 69 l 140 73 q 177 85 166 74 q 189 122 189 95 l 187 813 q 130 788 161 799 q 68 771 103 779 q -6 764 33 764 l -6 819 q 68 836 30 819 q 138 881 106 853 q 194 943 170 908 q 229 1013 219 978 l 291 1013 l 293 122 q 304 85 293 95 q 341 73 316 74 l 446 69 l 444 0 l 14 0 l 15 69 "},"k":{"x_min":-16.953125,"x_max":573.78125,"ha":546,"o":"m 573 284 l 567 270 q 512 164 538 213 q 461 78 486 114 q 408 20 435 41 q 351 0 381 0 q 291 16 320 0 q 233 61 262 32 q 176 129 204 90 q 117 210 147 168 l 93 206 q 88 103 91 151 q 82 25 86 55 q 70 5 80 11 q 46 0 61 0 q 15 4 27 0 q -3 16 3 9 q -13 32 -10 23 q -16 48 -16 40 q -2 156 -16 92 l -2 507 q 10 732 -2 637 q 47 890 24 828 q 101 983 70 953 q 166 1013 132 1013 q 220 989 204 1013 q 236 923 236 965 q 225 829 236 887 q 194 704 214 772 q 149 561 175 635 q 94 416 124 486 l 94 401 q 138 462 113 432 q 189 513 162 492 q 246 546 215 533 q 307 558 277 558 q 359 549 333 558 q 400 526 384 540 q 425 490 417 512 q 434 441 434 469 q 422 384 434 413 q 384 327 409 356 q 317 275 359 299 q 215 234 275 252 q 227 216 219 228 q 248 186 235 204 q 277 148 261 168 q 309 111 293 129 q 339 84 326 92 q 364 77 352 75 q 402 94 383 77 q 441 140 421 112 q 484 208 462 168 q 531 297 507 248 l 538 311 l 573 284 m 94 343 q 93 315 94 327 q 93 292 93 303 q 93 275 93 281 q 94 254 94 268 q 208 278 163 264 q 285 316 252 293 q 331 366 317 339 q 344 416 345 394 q 339 446 344 432 q 326 471 334 461 q 306 486 318 480 q 271 492 294 493 q 224 479 248 492 q 176 446 200 467 q 132 397 153 425 q 94 343 111 368 m 155 965 q 128 942 137 961 q 111 865 118 923 q 99 715 103 806 q 91 499 94 625 q 135 648 118 582 q 163 768 153 714 q 177 857 172 821 q 181 916 181 893 q 178 955 182 946 q 155 965 173 965 "},"€":{"x_min":80.703125,"x_max":716.875,"ha":799,"o":"m 104 645 l 176 645 q 208 794 183 726 q 272 910 233 862 q 362 986 311 959 q 474 1013 413 1013 q 606 974 549 1013 q 699 865 663 934 l 669 843 q 638 895 657 870 q 597 939 620 920 q 548 968 575 957 q 493 979 522 979 q 405 952 442 979 q 342 880 368 925 q 303 774 317 834 q 284 645 289 713 l 611 645 l 604 604 l 283 604 l 283 545 l 594 545 l 587 503 l 286 503 q 305 378 290 437 q 344 274 319 318 q 404 204 368 230 q 489 179 440 179 q 552 190 523 179 q 606 223 581 202 q 650 273 630 244 q 683 337 669 302 l 716 326 q 619 191 680 240 q 474 143 558 143 q 363 169 414 143 q 273 243 312 196 q 209 358 234 291 q 176 503 184 424 l 80 503 l 88 545 l 173 545 l 173 604 l 96 604 l 104 645 "},"<":{"x_min":-63.078125,"x_max":402.1875,"ha":314,"o":"m 402 222 l 381 180 l -63 437 l 381 694 l 402 653 l 40 437 l 402 222 "},"t":{"x_min":-44.765625,"x_max":351.3125,"ha":324,"o":"m -2 222 q 2 366 -2 294 q 16 514 8 439 l -44 514 l -35 564 l 23 564 q 41 694 31 624 q 59 833 51 763 l 128 833 q 125 790 127 818 q 119 725 122 762 q 113 644 116 688 q 109 564 111 600 l 241 564 l 233 514 l 105 514 q 101 438 103 475 q 97 367 99 400 q 94 305 95 333 q 94 257 94 277 q 97 170 94 205 q 106 115 100 136 q 120 88 113 94 q 139 82 126 82 q 177 99 156 82 q 219 143 198 116 q 263 209 240 170 q 308 293 286 248 l 315 307 l 351 284 l 344 270 q 282 157 313 207 q 221 72 251 107 q 163 18 191 37 q 108 0 134 0 q 61 12 82 0 q 26 51 40 24 q 4 120 12 78 q -2 222 -2 162 "},"W":{"x_min":-140.390625,"x_max":1243.1875,"ha":1219,"o":"m 449 73 q 502 86 474 73 q 550 119 529 99 q 593 172 571 138 q 634 247 615 207 q 666 329 653 286 q 686 416 679 373 q 692 532 687 470 q 704 644 697 594 q 719 758 711 704 l 827 787 q 812 652 819 727 q 802 499 807 588 q 798 305 798 411 q 809 171 798 220 q 839 99 820 122 q 883 61 857 75 q 937 46 908 46 q 1004 64 973 46 q 1060 118 1034 82 q 1106 209 1086 154 q 1138 317 1125 263 q 1159 441 1150 370 q 1169 584 1169 512 q 1161 752 1169 679 q 1140 878 1153 825 q 1109 968 1127 932 q 1076 1020 1091 1004 q 1043 1038 1060 1035 q 1009 1041 1027 1041 q 973 1034 989 1041 q 946 1018 956 1027 q 926 996 936 1008 q 908 974 915 984 l 856 1015 q 881 1048 864 1028 q 921 1086 897 1068 q 974 1118 944 1105 q 1037 1131 1003 1131 q 1125 1098 1087 1131 q 1189 1004 1163 1065 q 1229 857 1216 943 q 1243 668 1243 772 q 1234 495 1243 581 q 1209 331 1226 409 q 1166 186 1192 253 q 1106 70 1140 119 q 1028 -6 1071 21 q 931 -34 984 -34 q 845 -15 885 -34 q 775 41 805 3 q 726 116 744 78 q 690 226 708 154 q 647 124 670 166 q 589 54 623 81 q 510 13 555 27 q 420 0 464 0 q 341 13 379 0 q 274 58 303 26 q 227 143 244 90 q 209 276 209 196 q 221 401 209 338 q 250 528 232 465 q 288 653 267 591 q 326 773 308 714 q 355 885 343 831 q 366 986 366 938 q 348 1047 370 1028 q 284 1068 326 1065 q 199 1054 236 1068 q 118 1013 161 1041 q 41 941 75 984 q -14 845 6 897 q -46 739 -35 793 q -58 637 -58 686 q -7 531 -58 550 q 44 533 26 525 q 86 569 63 540 q 128 637 109 597 q 160 724 147 676 l 226 701 q 209 654 219 680 q 184 602 198 629 q 151 551 170 576 q 111 507 133 526 q 62 476 88 488 q 4 465 35 465 q -101 509 -61 465 q -140 642 -140 554 q -122 761 -140 701 q -73 876 -104 821 q 0 979 -42 931 q 90 1062 42 1027 q 190 1118 138 1098 q 293 1138 242 1138 q 368 1127 335 1138 q 426 1093 402 1117 q 462 1035 449 1070 q 474 951 474 1000 q 464 847 474 903 q 437 729 453 790 q 403 603 421 668 q 368 473 384 538 q 342 343 352 407 q 331 219 331 279 q 343 147 331 173 q 367 106 354 120 q 401 82 380 92 q 449 73 422 73 "},"v":{"x_min":-10.859375,"x_max":498.5,"ha":471,"o":"m 113 514 q 109 446 113 487 q 100 356 105 406 q 90 249 94 306 q 86 133 86 192 q 100 71 86 86 q 141 57 113 57 q 179 67 160 57 q 213 93 199 78 q 243 134 227 109 q 271 187 259 158 q 217 260 243 206 q 190 397 190 314 q 199 467 190 438 q 222 514 208 496 q 255 541 237 533 q 293 550 274 550 q 326 543 309 550 q 354 521 342 536 q 374 480 366 505 q 381 419 381 455 q 370 315 381 373 q 340 212 359 258 q 347 212 343 212 q 354 211 350 211 q 414 231 392 211 q 458 294 437 252 l 465 308 l 498 284 l 491 270 q 426 191 464 217 q 347 165 387 165 q 334 166 341 165 q 323 168 326 166 q 286 103 307 133 q 240 49 265 72 q 184 13 215 27 q 120 0 154 0 q 69 8 92 0 q 27 39 45 16 q 0 101 9 62 q -10 201 -10 140 q -9 262 -10 228 q -5 330 -8 295 q 0 398 -3 364 q 6 458 2 431 q 12 504 9 486 q 19 529 16 523 q 46 549 27 543 q 83 555 65 555 q 104 546 95 555 q 113 514 113 537 m 233 392 q 254 292 236 334 q 290 234 272 250 q 312 315 303 269 q 320 403 320 361 q 316 449 320 430 q 308 475 311 467 q 298 487 305 483 q 282 491 290 491 q 263 485 272 491 q 248 469 255 480 q 237 438 241 457 q 233 392 233 419 "},">":{"x_min":-199.390625,"x_max":265.859375,"ha":225,"o":"m 161 437 l -199 653 l -178 694 l 265 437 l -178 180 l -199 222 l 161 437 "},"s":{"x_min":-6.78125,"x_max":396.078125,"ha":452,"o":"m 396 236 q 382 147 396 189 q 341 72 368 105 q 275 19 314 39 q 184 0 235 0 q 119 11 147 0 q 69 43 90 23 q 38 89 49 63 q 27 141 27 114 q 38 192 27 168 q 66 232 48 215 q 107 258 84 248 q 156 267 130 267 q 190 263 172 267 l 191 229 q 149 220 170 229 q 116 199 128 211 q 95 168 103 187 q 92 124 88 149 q 120 66 91 92 q 201 43 149 39 q 245 50 228 43 q 278 75 263 57 q 301 117 293 93 q 308 172 308 141 q 299 225 308 201 q 270 272 289 250 q 227 314 251 295 q 178 352 203 334 q 130 387 153 370 q 90 419 106 404 l 22 268 l -6 291 l 62 442 q 25 487 37 466 q 13 539 13 509 q 19 570 13 555 q 34 595 25 584 q 57 611 44 605 q 84 617 70 617 q 123 603 110 617 q 139 564 137 590 q 138 543 139 554 q 134 523 137 532 q 128 507 131 514 q 118 487 126 499 q 166 456 138 470 q 226 425 195 441 q 287 392 257 410 q 342 351 318 373 q 381 300 366 328 q 396 236 396 271 m 83 581 q 69 578 73 581 q 65 563 65 574 q 71 536 65 551 q 92 507 77 521 q 100 532 99 521 q 101 556 101 542 q 97 574 101 567 q 83 581 92 581 "},"B":{"x_min":-7.453125,"x_max":852.53125,"ha":832,"o":"m 795 930 q 771 816 795 870 q 716 714 748 763 q 647 633 685 664 q 571 575 609 601 q 669 549 625 570 q 755 490 712 527 q 825 399 798 452 q 852 278 852 345 q 836 178 852 222 q 794 98 820 133 q 735 35 767 63 q 668 -10 703 6 q 597 -33 634 -27 q 534 -40 560 -40 q 426 -24 469 -40 q 347 19 383 -8 q 301 72 311 47 q 290 116 290 97 q 303 172 290 145 q 342 224 316 199 q 397 266 369 249 q 455 291 425 282 l 486 243 q 421 190 444 220 q 399 124 399 161 q 408 85 399 104 q 436 52 417 67 q 479 28 455 38 q 539 18 504 18 q 630 36 591 18 q 704 89 668 53 q 758 170 739 124 q 777 270 777 217 q 755 349 774 306 q 699 420 737 392 q 612 464 661 449 q 510 479 563 479 q 446 472 489 479 q 384 461 403 465 q 351 454 366 457 q 328 448 336 451 l 325 455 l 332 571 q 349 576 339 573 q 368 580 357 578 q 480 604 380 583 q 561 661 527 635 q 622 724 594 687 q 670 809 651 760 q 689 917 689 859 q 644 1033 691 990 q 512 1077 598 1077 q 415 1049 457 1071 q 325 988 373 1027 q 237 881 278 948 q 159 729 196 814 q 104 527 122 643 q 86 270 86 411 q 92 176 86 212 q 106 120 98 140 q 132 81 113 100 q 171 62 150 62 q 206 90 192 62 q 224 148 220 118 q 230 231 229 179 q 232 347 232 284 q 229 525 232 442 q 224 675 227 609 q 216 803 221 741 q 210 879 211 864 l 278 944 q 295 873 282 938 q 315 764 309 808 q 325 660 321 719 q 330 534 330 602 q 327 334 330 419 q 315 182 325 249 q 287 71 305 115 q 248 6 269 26 q 208 -24 227 -13 q 170 -34 189 -34 q 95 -6 128 -34 q 40 68 63 21 q 4 174 16 114 q -7 298 -7 234 q 9 487 -7 389 q 59 678 26 585 q 141 855 92 771 q 254 1002 190 939 q 396 1101 318 1064 q 566 1138 474 1138 q 660 1124 618 1138 q 733 1084 703 1110 q 779 1018 763 1057 q 795 930 795 980 "},"?":{"x_min":83.421875,"x_max":520.875,"ha":604,"o":"m 251 254 q 249 273 250 263 q 247 290 248 281 q 247 307 247 299 q 263 438 247 383 q 302 532 278 493 q 353 600 325 572 q 403 652 380 629 q 442 697 427 675 q 458 746 458 718 q 445 798 458 775 q 412 839 432 822 q 364 865 391 856 q 308 874 337 874 q 256 866 282 874 q 211 839 231 857 q 179 794 191 822 q 166 729 166 767 q 177 666 166 693 q 201 621 188 639 q 224 594 214 603 q 234 585 235 585 l 218 558 q 207 561 217 558 q 182 571 197 564 q 150 591 167 579 q 118 623 132 604 q 93 668 103 642 q 83 729 83 694 q 103 802 83 770 q 154 856 122 834 q 224 888 185 877 q 302 900 263 900 q 385 886 345 900 q 454 847 424 873 q 502 783 484 822 q 520 694 520 745 q 503 636 520 662 q 459 582 485 609 q 401 526 432 556 q 343 460 370 497 q 299 376 317 423 q 282 267 282 329 l 282 254 l 251 254 m 208 62 q 212 86 208 75 q 226 106 217 98 q 246 120 234 115 q 270 124 257 124 q 295 120 283 124 q 315 106 306 115 q 328 86 324 98 q 333 62 333 75 q 328 37 333 49 q 315 17 324 26 q 295 4 306 9 q 270 0 283 0 q 246 4 257 0 q 226 17 234 9 q 212 37 217 26 q 208 62 208 49 "},"H":{"x_min":-17.640625,"x_max":1211.3125,"ha":1101,"o":"m 996 -38 l 996 486 q 769 482 876 482 q 560 485 661 482 l 558 359 q 540 200 558 267 q 486 88 523 132 q 391 21 448 43 q 252 0 333 0 q 146 17 196 0 q 60 66 96 34 q 3 143 23 98 q -17 242 -17 187 q 9 359 -17 302 q 89 463 36 415 q 221 537 143 512 q 401 563 299 563 l 457 563 l 454 669 q 456 773 454 723 q 469 870 459 823 q 482 934 479 916 q 506 1004 486 952 q 451 996 470 997 q 387 996 432 996 q 325 999 356 996 q 263 1005 293 1002 q 203 1013 232 1009 q 148 1018 174 1018 q 103 1014 120 1018 q 72 998 86 1010 q 54 968 59 985 q 50 933 50 951 q 59 906 52 916 q 76 883 65 896 q 112 862 87 870 q 168 853 137 853 q 217 858 196 853 q 254 869 238 862 q 288 887 273 876 l 308 840 q 267 819 290 828 q 223 805 248 811 q 169 798 198 798 q 98 810 130 798 q 43 840 66 821 q 8 886 21 859 q -4 944 -4 913 q 9 1009 -4 981 q 46 1057 23 1037 q 101 1087 69 1077 q 169 1097 132 1097 q 243 1092 206 1097 q 316 1082 280 1087 q 388 1071 352 1076 q 458 1066 423 1066 q 526 1073 493 1066 q 593 1097 559 1079 l 621 1076 q 594 1030 605 1056 q 574 969 582 1005 q 562 884 566 933 q 558 763 558 834 l 560 563 l 996 558 l 993 752 q 996 869 993 818 q 998 959 1000 921 q 1005 1029 995 997 q 1027 1086 1014 1060 q 1054 1134 1039 1112 q 1086 1179 1069 1157 l 1134 1159 q 1116 1113 1124 1138 q 1103 1050 1108 1089 q 1096 952 1098 1011 q 1093 805 1093 893 l 1093 555 l 1211 555 l 1190 479 q 1141 479 1166 479 q 1093 480 1117 479 l 1093 -27 l 996 -38 m 269 54 q 347 65 316 54 q 401 101 379 76 q 439 171 423 125 q 454 290 454 217 l 455 485 q 414 487 434 486 q 378 488 394 488 q 278 479 319 488 q 202 456 237 470 q 140 420 168 442 q 99 367 113 398 q 78 304 84 336 q 72 242 72 271 q 96 148 78 183 q 144 91 115 114 q 204 62 172 69 q 269 54 235 54 "},"c":{"x_min":-9.5,"x_max":461.1875,"ha":433,"o":"m 229 387 q 243 419 237 400 q 248 451 248 438 q 237 489 248 474 q 196 504 226 504 q 155 492 177 504 q 118 454 134 480 q 90 385 101 428 q 79 283 79 341 q 88 199 79 237 q 116 134 98 161 q 159 95 134 107 q 214 82 183 83 q 261 92 238 82 q 309 131 284 103 q 362 200 335 159 q 417 298 389 241 l 424 312 l 461 284 l 454 270 q 381 146 417 198 q 309 62 345 94 q 241 14 274 29 q 176 0 207 0 q 97 18 132 0 q 39 68 63 36 q 3 141 15 99 q -9 229 -9 183 q 10 362 -9 302 q 62 465 30 422 q 134 531 94 507 q 215 555 174 555 q 267 546 246 555 q 301 524 288 537 q 319 495 314 510 q 324 465 324 479 q 318 435 324 451 q 300 407 312 420 q 272 383 288 394 q 236 368 256 373 l 229 387 "},"&":{"x_min":-37.984375,"x_max":851.171875,"ha":796,"o":"m 727 385 q 775 399 752 385 q 798 431 798 413 q 796 445 798 440 q 784 458 794 451 q 756 469 773 465 q 714 473 739 473 q 661 468 682 473 q 610 453 640 464 q 648 378 639 415 q 656 287 657 341 q 627 168 655 223 q 551 75 598 113 q 442 19 504 38 q 314 0 381 0 q 185 19 248 0 q 72 78 122 39 q -7 177 22 118 q -37 316 -37 237 q -14 445 -37 389 q 45 540 8 500 q 125 604 82 579 q 210 644 167 630 q 160 678 183 657 q 118 722 137 698 q 86 776 98 747 q 74 840 74 806 q 94 926 74 887 q 148 995 115 965 q 223 1040 181 1025 q 309 1054 265 1054 q 400 1042 362 1054 q 462 1012 438 1030 q 498 967 486 993 q 509 917 509 940 q 501 879 509 897 q 480 846 493 860 q 448 824 467 832 q 406 816 429 816 q 374 823 388 816 q 349 837 360 829 q 331 853 338 845 q 322 865 324 862 l 340 897 q 350 889 343 893 q 364 879 356 884 q 382 872 373 875 q 401 869 391 869 q 444 883 428 869 q 460 923 460 897 q 454 948 460 939 q 435 969 448 958 q 397 988 421 980 q 341 996 374 996 q 267 983 299 996 q 213 947 236 971 q 180 890 191 923 q 168 823 168 857 q 173 778 168 797 q 192 739 179 759 q 226 700 205 718 q 274 672 247 682 q 299 676 287 675 q 322 677 311 677 q 358 661 339 677 q 375 626 376 646 q 356 604 367 612 q 325 596 344 596 q 300 598 314 596 q 272 605 287 600 q 184 572 225 594 q 121 518 143 550 q 86 443 98 487 q 74 352 74 398 q 87 253 74 297 q 137 169 99 210 q 226 102 174 128 q 349 75 278 75 q 433 86 398 75 q 502 126 467 96 q 560 202 538 157 q 581 305 581 246 q 566 387 581 352 q 545 429 550 423 q 499 410 526 421 q 443 389 472 398 q 384 374 414 379 q 322 368 354 368 q 280 374 298 368 q 250 390 262 380 q 230 410 238 400 q 219 453 222 420 q 235 509 221 493 q 269 536 248 524 q 317 554 289 548 q 375 560 344 560 q 445 555 407 560 q 543 518 482 549 q 613 544 575 531 q 706 556 651 556 q 771 546 744 556 q 816 521 798 537 q 842 486 834 505 q 851 446 851 466 q 844 411 851 428 q 824 381 837 394 q 793 357 811 367 q 732 345 775 346 l 727 385 m 378 492 q 314 481 339 492 q 286 461 288 471 q 299 443 286 450 q 338 436 311 436 q 403 449 369 436 q 467 482 436 463 q 425 488 450 484 q 378 492 400 492 "},"−":{"x_min":83.421875,"x_max":493.0625,"ha":576,"o":"m 83 416 l 493 416 l 493 360 l 83 360 l 83 416 "},"I":{"x_min":-61.71875,"x_max":611.75,"ha":576,"o":"m 459 275 q 458 310 459 293 q 455 346 457 328 q 452 385 454 364 q 448 432 450 406 q 389 415 420 421 q 320 409 358 409 q 239 422 278 409 q 170 461 200 436 q 123 526 141 487 q 105 617 105 565 q 112 681 105 651 q 140 746 120 712 q 192 820 160 780 q 276 910 225 859 q 395 1026 326 961 q 556 1174 463 1090 l 583 1152 q 557 1108 569 1132 q 537 1051 545 1083 q 525 978 529 1020 q 521 881 521 936 q 527 715 521 799 q 533 563 533 630 q 549 595 538 574 q 567 637 559 616 l 611 617 q 582 556 598 585 q 545 503 566 528 q 552 440 548 469 q 557 386 555 411 q 561 338 560 361 q 563 291 563 315 q 550 161 563 218 q 499 62 537 104 q 393 -7 461 19 q 229 -34 324 -34 q 118 -18 171 -34 q 25 27 65 -2 q -37 96 -14 56 q -61 187 -61 137 q -49 252 -61 223 q -18 304 -37 282 q 22 343 0 327 q 67 370 45 360 q 106 387 88 381 q 132 396 124 394 l 151 350 q 117 328 136 342 q 80 294 97 314 q 48 251 62 274 q 35 187 35 228 q 49 120 35 143 q 89 77 63 97 q 152 45 115 57 q 233 32 189 32 q 324 47 283 32 q 394 94 365 62 q 441 161 423 126 q 459 275 459 196 m 444 995 q 377 925 418 966 q 306 851 337 885 q 256 788 276 817 q 223 731 236 759 q 206 675 211 704 q 200 614 200 647 q 233 519 196 556 q 349 483 271 483 q 397 488 375 483 q 440 503 420 493 q 435 565 439 526 q 426 648 430 604 q 420 731 422 692 q 417 798 417 769 q 420 862 417 828 q 429 930 423 897 q 436 972 434 963 q 444 995 437 982 "},"G":{"x_min":-21.03125,"x_max":793.515625,"ha":771,"o":"m 786 243 q 753 190 771 215 q 714 145 734 166 q 673 107 693 124 q 642 80 653 90 l 641 26 q 627 -131 641 -62 q 587 -248 613 -200 q 525 -322 561 -297 q 444 -347 489 -347 q 399 -337 419 -347 q 364 -310 379 -327 q 341 -270 349 -293 q 333 -222 333 -248 q 350 -131 333 -172 q 395 -52 366 -89 q 461 17 423 -15 q 540 84 498 51 q 542 158 541 122 q 542 210 544 195 q 541 245 541 226 q 543 281 541 264 q 498 203 524 237 q 440 134 472 168 q 372 68 408 99 q 301 11 337 36 q 228 -24 265 -13 q 160 -34 192 -34 q 90 -20 123 -34 q 32 25 57 -5 q -6 105 8 56 q -21 222 -21 154 q -4 378 -21 298 q 42 537 12 458 q 113 691 72 615 q 204 833 155 766 q 307 955 252 900 q 419 1052 362 1011 q 534 1116 476 1093 q 645 1138 591 1138 q 736 1109 702 1138 q 771 1028 771 1081 q 759 955 771 999 q 728 887 748 912 q 683 840 708 862 q 632 800 658 818 q 580 767 606 781 q 535 744 555 753 l 514 805 q 570 842 539 818 q 627 895 600 866 q 663 952 653 925 q 674 1014 674 980 q 658 1052 674 1043 q 610 1062 643 1062 q 516 1024 560 1052 q 414 940 472 996 q 303 809 356 883 q 206 649 250 735 q 132 461 161 562 q 104 250 104 361 q 110 176 104 201 q 130 124 115 151 q 164 83 145 97 q 208 68 183 68 q 286 96 250 75 q 351 146 322 118 q 415 215 381 174 q 479 301 450 256 q 530 394 508 347 q 562 482 552 440 q 569 539 564 498 q 576 611 573 580 q 583 662 580 642 q 590 687 587 681 q 605 708 595 697 q 627 726 615 718 q 651 738 639 733 q 670 743 662 743 q 685 734 681 743 q 689 715 689 725 q 678 636 689 685 q 653 520 668 586 q 643 445 646 492 q 639 346 640 399 q 638 241 638 294 q 637 145 638 187 q 717 221 687 182 q 763 291 748 260 l 771 305 l 793 257 l 786 243 m 539 10 q 480 -42 507 -14 q 441 -90 454 -70 q 415 -147 429 -109 q 402 -219 401 -185 q 419 -263 405 -242 q 453 -284 432 -284 q 487 -274 474 -284 q 512 -229 499 -264 q 532 -128 524 -194 q 539 10 539 -61 "},"(":{"x_min":-13.5625,"x_max":312.65625,"ha":284,"o":"m 312 1088 q 277 1067 299 1083 q 230 1021 255 1051 q 179 946 205 991 q 131 845 153 902 q 96 708 109 788 q 83 527 83 628 q 96 346 83 426 q 130 210 109 266 q 176 109 150 154 q 227 35 202 65 q 275 -10 252 6 q 309 -31 297 -26 l 300 -75 q 249 -49 280 -68 q 183 1 218 -31 q 113 80 149 33 q 50 192 78 127 q 4 340 21 257 q -13 527 -13 423 q 4 715 -13 632 q 50 863 21 798 q 113 974 78 927 q 183 1054 149 1022 q 249 1105 218 1086 q 300 1130 280 1123 l 312 1088 "},"`":{"x_min":-37.296875,"x_max":129.546875,"ha":130,"o":"m 101 604 l -37 756 l 52 798 l 129 625 l 101 604 "},"U":{"x_min":-116.65625,"x_max":1112.28125,"ha":1036,"o":"m 459 44 q 533 66 499 44 q 596 118 567 88 q 660 192 626 149 q 725 282 694 236 l 726 298 q 732 466 726 370 q 751 657 739 562 q 781 839 763 752 q 820 992 798 926 q 869 1099 843 1059 q 925 1138 895 1138 q 960 1119 946 1138 q 977 1037 974 1099 q 968 915 977 989 q 943 753 960 841 q 896 565 926 664 q 832 368 866 465 l 829 337 q 849 143 829 209 q 904 87 869 76 q 936 101 923 87 q 964 138 949 114 q 1000 201 979 162 q 1043 303 1020 240 l 1051 318 l 1112 284 l 1105 270 q 1047 142 1074 193 q 995 58 1021 92 q 941 12 970 24 q 876 0 912 0 q 774 43 808 0 q 734 171 741 87 q 668 83 697 118 q 603 24 639 49 q 528 -17 567 0 q 445 -34 489 -34 q 360 -18 401 -34 q 286 28 318 -3 q 236 110 255 61 q 217 229 217 160 q 232 376 217 303 q 270 518 247 448 q 321 653 294 588 q 371 780 347 719 q 407 893 394 841 q 417 982 419 945 q 413 1023 417 1011 q 401 1042 409 1034 q 378 1056 394 1051 q 345 1061 363 1061 q 269 1050 315 1063 q 175 1007 224 1037 q 83 929 127 978 q 14 825 40 880 q -25 719 -11 770 q -38 619 -38 668 q -16 564 -38 587 q 41 541 4 541 q 84 553 67 541 q 121 587 100 564 q 164 649 141 609 q 204 735 187 688 l 258 708 q 223 636 245 676 q 170 558 201 595 q 101 497 140 522 q 15 472 62 472 q -37 481 -12 472 q -79 508 -61 490 q -106 554 -96 526 q -116 617 -116 581 q -95 741 -116 678 q -40 861 -75 803 q 42 970 -4 919 q 143 1058 90 1020 q 252 1117 196 1095 q 362 1138 309 1138 q 422 1128 395 1138 q 468 1097 448 1117 q 498 1045 487 1076 q 508 972 508 1013 q 494 859 508 922 q 458 726 479 796 q 411 583 436 657 q 364 437 385 510 q 328 298 343 365 q 314 173 314 230 q 332 112 314 139 q 370 70 350 84 q 415 50 391 56 q 459 44 439 44 m 900 1032 q 883 1010 890 1032 q 871 959 875 987 q 859 872 866 931 q 846 756 851 813 q 840 650 841 698 q 840 577 840 602 q 862 671 850 622 q 885 789 873 720 q 903 901 897 858 q 911 974 910 943 q 911 1020 912 1007 q 900 1032 909 1032 "},"F":{"x_min":-80.703125,"x_max":843.03125,"ha":756,"o":"m 530 575 l 530 680 q 535 829 530 762 q 550 950 540 895 q 445 966 501 955 q 335 988 389 978 q 233 1005 281 998 q 146 1012 185 1012 q 68 1006 94 1012 q 25 989 42 1001 q 0 966 8 978 q -8 937 -7 954 q -1 902 -8 916 q 23 874 6 887 q 63 856 41 861 q 115 852 84 852 q 159 858 139 852 q 197 873 178 864 q 236 898 219 884 l 266 837 q 220 809 245 822 q 169 790 198 798 q 106 781 141 781 q 26 794 61 781 q -32 827 -8 806 q -68 875 -56 847 q -80 934 -80 903 q -69 999 -80 967 q -32 1054 -58 1030 q 36 1093 -6 1079 q 141 1108 79 1108 q 257 1099 199 1108 q 374 1082 315 1089 q 486 1059 432 1074 q 590 1031 540 1043 q 658 1106 615 1074 q 752 1138 701 1138 q 791 1131 774 1138 q 819 1112 808 1124 q 837 1086 831 1101 q 843 1053 843 1070 q 829 1004 843 1025 q 793 970 816 984 q 739 949 770 956 q 672 943 708 943 q 655 943 663 943 q 638 944 647 943 q 630 869 633 910 q 627 775 627 827 l 627 575 l 762 575 l 748 514 l 627 514 l 627 347 q 626 247 627 290 q 618 172 624 205 q 600 113 612 139 q 566 62 588 87 q 462 -7 529 19 q 301 -34 396 -34 q 189 -18 242 -34 q 96 27 137 -2 q 33 96 56 56 q 9 187 9 137 q 21 252 9 223 q 52 304 33 282 q 93 343 71 327 q 138 370 116 360 q 177 387 160 381 q 204 396 195 394 l 224 356 q 189 334 208 347 q 147 296 170 320 q 115 250 125 273 q 103 187 106 228 q 118 126 107 152 q 158 79 129 100 q 224 46 187 59 q 305 33 261 33 q 393 52 354 33 q 465 101 432 71 q 514 163 497 130 q 530 275 530 196 l 530 514 l 369 514 l 383 575 l 530 575 m 752 1085 q 705 1073 730 1086 q 655 1018 680 1061 q 695 1012 676 1014 q 733 1010 715 1010 q 764 1015 751 1010 q 781 1025 777 1020 q 790 1040 786 1030 q 794 1060 794 1050 q 782 1078 791 1072 q 752 1085 773 1085 "},"r":{"x_min":-41.375,"x_max":437.453125,"ha":410,"o":"m -11 293 l -4 307 q 13 349 5 327 q 28 390 22 370 q 37 424 34 409 q 42 448 41 440 q 13 455 29 448 q -14 474 -2 462 q -34 501 -27 485 q -41 536 -41 516 q -35 564 -41 552 q -21 584 -30 576 q -1 597 -12 592 q 22 601 10 601 q 50 594 38 601 q 71 576 63 588 q 83 551 79 565 q 87 520 87 536 q 128 526 106 520 q 172 538 150 531 q 217 550 195 544 q 257 555 238 555 q 282 549 272 555 q 291 527 291 542 q 285 491 291 516 q 269 433 278 466 q 248 361 259 400 q 227 282 237 322 q 211 205 218 242 q 205 139 205 168 q 212 94 205 102 q 240 86 219 86 q 262 94 248 86 q 291 123 275 102 q 334 186 307 143 q 394 297 360 228 l 401 311 l 437 284 l 430 270 q 358 137 389 189 q 299 54 326 84 q 248 11 272 23 q 201 0 225 0 q 136 30 161 0 q 111 124 111 61 q 120 196 111 159 q 144 270 130 233 q 176 343 158 307 q 209 412 193 379 q 236 467 225 444 q 251 512 246 491 l 247 516 q 218 504 236 516 q 180 482 200 493 q 134 459 160 472 q 82 444 108 446 q 76 416 80 434 q 64 375 71 398 q 47 329 56 353 q 27 284 37 305 l 21 270 l -11 293 m 27 558 q 17 554 21 558 q 13 544 13 550 q 16 533 13 536 q 26 526 20 530 q 39 521 32 522 q 50 519 45 519 q 44 544 49 531 q 27 558 39 558 "},":":{"x_min":83.421875,"x_max":208.21875,"ha":292,"o":"m 83 104 q 88 128 83 117 q 101 148 92 140 q 121 162 109 157 q 145 166 132 166 q 170 162 158 166 q 190 148 181 157 q 203 128 198 140 q 208 104 208 117 q 203 79 208 90 q 190 59 198 68 q 170 46 181 50 q 145 41 158 41 q 121 46 132 41 q 101 59 109 50 q 88 79 92 68 q 83 104 83 90 m 83 423 q 88 448 83 436 q 101 468 92 459 q 121 481 109 476 q 145 486 132 486 q 170 481 158 486 q 190 468 181 476 q 203 448 198 459 q 208 423 208 436 q 203 399 208 410 q 190 379 198 387 q 170 365 181 370 q 145 360 158 360 q 121 365 132 360 q 101 379 109 370 q 88 399 92 387 q 83 423 83 410 "},"x":{"x_min":-6.78125,"x_max":548.6875,"ha":521,"o":"m 13 -27 q 16 4 13 -14 q 32 45 18 23 q 74 103 46 67 q 148 195 101 138 l 183 237 q 152 353 164 307 q 135 419 141 399 q 127 444 130 438 q 118 451 124 451 q 108 438 113 451 q 92 407 103 425 q 67 356 82 388 q 31 280 52 323 l 25 266 l -6 291 l 0 305 q 42 394 25 356 q 71 460 59 432 q 92 506 83 488 q 110 535 101 524 q 131 551 120 546 q 161 555 143 555 q 187 547 176 555 q 208 513 198 539 q 233 437 219 486 q 265 315 246 388 q 299 361 282 337 q 330 410 316 385 q 350 455 344 434 q 359 484 356 476 q 356 504 359 496 q 350 518 354 513 q 342 530 347 525 l 360 555 q 392 549 378 554 q 413 534 403 544 q 423 507 423 524 q 413 461 423 486 q 383 404 402 435 q 338 338 364 374 q 279 263 311 303 q 309 167 295 202 q 334 112 322 131 q 349 91 345 94 q 364 88 354 88 q 391 103 377 88 q 423 146 406 118 q 459 211 440 173 q 503 297 479 250 l 510 311 l 548 284 l 541 270 q 478 146 505 198 q 428 63 451 95 q 383 15 405 30 q 333 0 360 0 q 295 5 312 0 q 262 30 278 10 q 231 88 246 50 q 197 190 215 126 l 168 155 q 99 60 120 98 q 78 -2 78 23 q 82 -33 78 -20 q 92 -55 86 -47 l 83 -76 q 61 -74 73 -76 q 39 -67 49 -73 q 21 -52 28 -62 q 13 -27 13 -43 "},"*":{"x_min":-21.703125,"x_max":354.703125,"ha":256,"o":"m 218 423 l 164 575 l 114 434 l 32 467 l 137 591 l -9 566 l -21 653 l 136 626 l 32 746 l 120 781 l 166 642 l 225 794 l 293 737 l 194 624 l 354 652 l 339 564 l 196 591 l 292 482 l 218 423 "},"V":{"x_min":-137,"x_max":887.796875,"ha":922,"o":"m 732 1131 q 803 1110 773 1131 q 851 1049 832 1089 q 878 953 870 1009 q 887 826 887 896 q 880 690 887 761 q 858 546 872 619 q 822 402 843 473 q 773 266 800 330 q 713 146 746 202 q 641 51 680 91 q 559 -11 602 10 q 467 -34 515 -34 q 379 -16 416 -34 q 317 32 342 1 q 276 103 291 63 q 251 188 260 143 q 240 279 243 233 q 238 368 238 326 q 244 525 238 448 q 260 672 251 601 q 275 809 268 744 q 282 933 282 874 q 277 1002 282 982 q 259 1036 271 1022 q 229 1058 246 1050 q 189 1066 212 1066 q 135 1061 160 1066 q 86 1038 111 1055 q 36 991 62 1022 q -8 923 10 961 q -37 843 -27 885 q -46 758 -46 800 q -40 693 -46 714 q -28 663 -34 673 q -11 647 -23 654 q 18 639 0 639 q 68 648 50 639 q 105 689 86 657 q 136 765 124 720 q 153 863 148 809 l 218 840 q 211 787 216 817 q 196 728 206 758 q 172 668 187 697 q 137 617 158 639 q 88 580 116 594 q 24 567 61 567 q -30 577 -2 567 q -82 609 -59 587 q -121 665 -106 630 q -137 750 -137 700 q -123 846 -137 798 q -85 937 -109 893 q -28 1017 -61 980 q 43 1081 4 1053 q 124 1123 82 1108 q 210 1138 167 1138 q 392 874 392 1138 q 386 737 392 810 q 374 589 380 665 q 361 438 367 514 q 356 293 356 362 q 368 161 356 202 q 399 98 381 120 q 440 69 418 77 q 491 61 463 61 q 562 78 534 61 q 621 140 590 96 q 684 256 653 183 q 741 408 716 328 q 785 574 766 489 q 804 743 804 659 q 798 896 808 833 q 772 992 788 959 q 740 1037 756 1026 q 698 1047 725 1047 q 657 1038 674 1044 q 630 1022 640 1031 q 609 1002 620 1013 q 590 982 597 991 l 545 1028 q 573 1058 554 1040 q 616 1091 592 1075 q 671 1120 641 1108 q 732 1131 700 1131 "},"h":{"x_min":-29.15625,"x_max":560.890625,"ha":533,"o":"m 90 236 q 88 165 90 202 q 79 91 86 128 q 61 20 73 54 q 27 -44 48 -14 l -23 -29 q -3 90 -6 27 q 0 215 0 152 q -4 350 0 282 q -14 486 -8 418 q -24 623 -20 554 q -29 763 -29 693 q -20 838 -29 806 q 4 891 -10 870 q 37 922 18 912 q 73 933 55 933 q 114 914 99 933 q 137 865 130 896 q 145 792 145 834 q 141 705 145 751 q 130 611 137 659 q 113 517 122 562 q 96 441 105 472 q 82 383 88 411 q 83 372 82 377 q 83 364 84 366 q 118 440 95 398 q 161 506 140 481 q 213 549 183 531 q 291 566 243 567 q 366 522 343 557 q 389 423 389 487 q 385 339 389 379 q 374 260 380 298 q 364 187 368 223 q 359 118 359 152 q 376 88 358 84 q 399 106 386 88 q 432 154 412 124 q 473 223 451 184 q 516 303 495 261 l 522 318 l 560 284 l 554 270 q 504 175 530 223 q 451 88 478 127 q 396 24 424 49 q 340 0 368 0 q 315 4 328 0 q 292 18 303 8 q 276 45 282 28 q 269 90 269 63 q 271 149 269 117 q 278 214 274 181 q 286 281 282 248 q 295 343 291 314 q 301 396 299 373 q 304 434 304 419 q 293 488 304 473 q 261 503 282 503 q 209 478 233 503 q 163 416 185 452 q 122 340 141 381 q 90 264 104 299 q 90 248 90 254 q 90 236 90 243 m 46 816 q 48 749 46 788 q 54 663 50 709 q 62 567 58 617 q 69 503 67 516 q 74 558 71 518 q 84 644 78 598 q 93 734 90 691 q 95 811 96 777 q 89 855 93 845 q 75 868 86 866 q 54 860 62 868 q 46 816 46 851 "},"0":{"x_min":-14.921875,"x_max":596.15625,"ha":589,"o":"m 297 81 q 386 114 354 81 q 435 192 419 147 q 461 323 452 238 q 470 499 470 408 q 466 618 470 560 q 453 720 462 677 q 433 799 444 763 q 402 870 422 834 q 358 922 383 906 q 286 940 333 938 q 221 907 242 927 q 186 862 200 886 q 163 812 172 837 q 145 734 153 786 q 132 622 136 681 q 128 503 128 564 q 137 341 128 412 q 162 214 146 270 q 209 119 178 158 q 297 81 240 81 m 290 0 q 154 38 212 0 q 59 144 97 76 q 3 304 21 211 q -14 507 -14 397 q 3 709 -14 616 q 59 869 21 802 q 154 975 97 937 q 290 1013 212 1013 q 426 975 368 1013 q 521 869 484 937 q 577 709 559 802 q 596 507 596 616 q 577 304 596 397 q 521 144 559 211 q 426 38 484 76 q 290 0 368 0 "},".":{"x_min":55.609375,"x_max":180.40625,"ha":264,"o":"m 55 62 q 60 86 55 75 q 73 106 65 98 q 93 120 82 115 q 118 124 105 124 q 142 120 130 124 q 162 106 153 115 q 175 86 170 98 q 180 62 180 75 q 175 37 180 49 q 162 17 170 26 q 142 4 153 9 q 118 0 130 0 q 93 4 105 0 q 73 17 82 9 q 60 37 65 26 q 55 62 55 49 "},"@":{"x_min":-29.15625,"x_max":609.71875,"ha":601,"o":"m 609 330 q 598 242 609 281 q 568 175 586 202 q 525 132 549 147 q 476 118 501 118 q 444 123 459 118 q 416 139 429 128 q 394 165 403 149 q 380 202 384 181 q 324 139 358 160 q 254 119 290 119 q 191 133 218 119 q 147 171 164 147 q 121 224 129 194 q 112 287 112 255 q 123 357 112 322 q 153 419 133 392 q 204 463 174 446 q 276 480 235 480 q 344 463 311 480 q 397 411 377 446 l 400 448 q 415 464 401 461 q 445 467 430 467 q 459 464 455 467 q 463 451 463 461 q 460 431 463 446 q 453 387 457 415 q 446 321 449 360 q 442 231 442 282 q 453 179 442 196 q 478 162 463 162 q 520 204 507 162 q 533 330 533 245 q 519 429 533 384 q 476 507 505 474 q 404 558 448 539 q 301 576 360 576 q 214 558 257 576 q 138 505 172 541 q 83 416 104 470 q 62 288 62 362 q 79 189 62 234 q 126 110 95 143 q 201 59 158 78 q 299 41 245 41 q 350 44 326 41 q 392 51 374 47 q 429 62 412 56 l 440 33 q 399 16 421 23 q 355 5 380 10 q 299 0 329 0 q 154 25 216 0 q 51 92 92 50 q -9 188 10 134 q -29 299 -29 242 q -8 415 -29 358 q 54 517 12 472 q 158 590 96 562 q 301 617 219 617 q 425 596 368 617 q 523 536 482 575 q 587 445 564 498 q 609 330 609 392 m 381 341 q 374 385 381 366 q 355 416 367 404 q 328 436 343 429 q 295 442 312 442 q 250 429 269 442 q 219 394 231 416 q 199 345 206 373 q 193 290 193 318 q 198 240 193 264 q 214 198 204 217 q 242 169 225 180 q 280 158 259 158 q 315 169 297 158 q 348 203 333 180 q 372 261 362 226 q 381 341 381 295 "},"f":{"x_min":-1.359375,"x_max":318.09375,"ha":290,"o":"m 282 316 l 318 284 l 311 270 q 245 190 286 220 q 155 161 204 161 q 125 164 141 161 q 95 173 110 167 l 95 -340 l 26 -347 q 12 -99 18 -232 q 7 23 9 -42 q 2 163 4 90 q 0 317 0 237 q -1 479 -1 396 q 12 709 -1 609 q 51 876 27 809 q 106 979 75 944 q 172 1013 137 1013 q 196 1009 185 1013 q 216 995 208 1005 q 229 969 225 986 q 234 930 234 953 q 221 801 234 872 q 186 659 207 731 q 141 519 166 588 q 95 394 117 450 l 95 256 q 110 242 101 248 q 128 232 118 236 q 148 226 138 228 q 166 224 158 224 q 229 242 202 224 q 275 302 256 261 l 282 316 m 96 514 q 124 602 113 562 q 147 694 135 641 q 165 800 158 748 q 172 902 172 853 q 168 939 170 928 q 148 950 165 950 q 123 927 133 950 q 107 852 113 904 q 98 730 101 800 q 95 583 95 661 l 96 514 "},";":{"x_min":83.421875,"x_max":222.453125,"ha":292,"o":"m 83 423 q 88 448 83 436 q 101 468 92 459 q 121 481 109 476 q 145 486 132 486 q 170 481 158 486 q 190 468 181 476 q 203 448 198 459 q 208 423 208 436 q 203 399 208 410 q 190 379 198 387 q 170 365 181 370 q 145 360 158 360 q 121 365 132 360 q 101 379 109 370 q 88 399 92 387 q 83 423 83 410 m 152 166 q 203 143 184 166 q 222 83 222 119 q 206 18 222 48 q 172 -33 191 -11 q 122 -82 149 -60 l 103 -63 q 117 -50 109 -59 q 132 -29 125 -41 q 144 -5 139 -18 q 149 19 149 7 q 139 33 149 27 q 117 46 129 38 q 94 67 105 54 q 84 103 84 80 q 90 127 84 115 q 105 147 96 139 q 127 161 115 156 q 152 166 139 166 "},"i":{"x_min":-6.78125,"x_max":362.84375,"ha":335,"o":"m 37 297 l 31 284 l 24 269 l -6 291 l 0 305 q 28 375 16 340 q 46 440 39 410 q 58 494 53 471 q 67 527 63 517 q 79 540 71 535 q 95 549 87 545 q 112 554 104 552 q 123 555 120 555 q 143 549 138 555 q 148 527 148 543 q 145 490 148 520 q 138 416 142 461 q 131 317 134 372 q 128 202 128 261 q 132 135 128 160 q 142 101 137 110 q 150 90 147 91 q 164 84 153 88 q 190 94 177 86 q 220 127 202 102 q 261 192 237 151 q 316 297 284 233 l 324 311 l 362 284 l 355 270 q 304 171 329 220 q 252 84 278 122 q 200 23 226 46 q 147 0 173 0 q 99 11 119 0 q 66 48 79 22 q 46 116 52 73 q 40 221 40 158 q 40 258 40 238 q 41 298 40 277 l 37 297 m 170 594 q 154 555 170 571 q 114 539 138 539 q 75 555 91 539 q 59 594 59 571 q 75 634 59 617 q 114 650 91 650 q 154 634 138 650 q 170 594 170 617 "},"6":{"x_min":-8.140625,"x_max":600.234375,"ha":589,"o":"m 318 527 q 251 511 281 527 q 197 471 221 495 q 150 405 172 446 q 129 311 129 364 q 143 208 129 251 q 177 132 156 164 q 232 78 197 101 q 308 56 268 56 q 375 72 343 56 q 432 119 407 88 q 470 192 457 149 q 484 289 482 235 q 471 383 482 339 q 439 457 460 427 q 388 507 419 486 q 318 527 358 527 m 455 988 q 394 956 427 975 q 328 908 362 937 q 262 839 295 878 q 202 747 229 799 q 155 627 175 694 q 131 513 134 560 q 142 526 138 524 q 170 549 147 528 q 227 584 193 569 q 322 605 261 598 q 439 583 385 605 q 527 520 493 560 q 580 431 561 480 q 600 327 600 382 q 576 189 600 250 q 511 85 552 128 q 416 21 470 43 q 303 -1 362 -1 q 178 28 236 -1 q 80 113 121 58 q 15 245 38 168 q -8 417 -8 322 q 9 569 -8 496 q 59 705 27 641 q 132 821 90 768 q 222 914 174 874 q 321 979 270 954 q 422 1012 373 1004 l 455 988 "},"A":{"x_min":-21.03125,"x_max":944.765625,"ha":917,"o":"m 657 242 q 660 148 657 183 q 665 101 663 113 q 675 82 668 88 q 696 75 682 75 q 730 87 718 80 q 760 113 741 94 q 797 153 779 131 q 829 197 814 176 q 854 237 843 219 q 870 266 864 256 l 891 308 l 944 284 l 923 242 q 906 209 918 232 q 875 159 893 187 q 834 102 857 132 q 784 48 811 73 q 729 8 758 24 q 669 -6 699 -6 q 619 2 641 -6 q 583 36 598 12 q 560 102 568 60 q 551 175 552 143 q 551 218 551 200 q 554 258 552 235 q 483 139 519 191 q 398 44 448 88 q 290 -23 347 1 q 155 -44 233 -48 q 85 -21 111 -34 q 33 17 59 -8 q -6 86 8 44 q -21 187 -21 128 q 0 370 -21 280 q 56 545 20 461 q 143 707 93 630 q 249 849 192 784 q 368 968 306 915 q 493 1060 431 1022 q 615 1118 556 1098 q 726 1138 674 1138 q 817 1109 783 1138 q 851 1028 851 1081 q 837 959 851 992 q 800 886 823 925 q 749 818 777 846 q 691 769 720 791 q 634 730 661 747 q 587 704 607 714 l 568 762 q 607 786 585 771 q 651 823 629 802 q 695 869 674 844 q 733 923 716 895 q 760 975 750 951 q 769 1029 769 999 q 750 1057 764 1047 q 702 1067 736 1067 q 615 1046 662 1067 q 519 988 569 1026 q 420 897 470 950 q 330 793 370 845 q 250 672 290 741 q 181 525 210 603 q 134 367 151 448 q 118 208 118 287 q 126 150 120 175 q 145 107 131 126 q 177 77 160 88 q 216 60 195 67 q 287 77 252 60 q 355 123 322 94 q 419 191 388 151 q 477 275 450 231 q 527 364 504 318 q 569 455 551 410 q 577 527 571 481 q 590 611 583 574 q 601 683 596 647 q 611 724 607 718 q 622 735 613 729 q 642 746 631 741 q 665 755 653 751 q 685 758 676 758 q 705 738 705 758 q 702 682 705 719 q 695 619 699 646 q 683 564 690 592 q 669 514 677 537 q 660 372 663 440 q 657 242 657 303 "},"n":{"x_min":-22.375,"x_max":576.484375,"ha":548,"o":"m 261 503 q 220 487 242 503 q 173 444 198 471 q 126 385 148 417 q 87 322 103 354 q 83 191 85 262 q 82 41 82 121 q 72 23 82 31 q 51 10 63 15 q 26 2 39 5 q 5 0 13 0 q -13 6 -4 0 q -22 33 -22 12 q -20 58 -22 43 q -15 91 -18 73 q -8 127 -12 109 q -1 162 -4 146 l -1 494 q -1 515 -1 507 q 1 527 0 523 q 15 542 5 537 q 37 551 25 548 q 59 554 48 554 q 76 555 70 555 q 92 549 88 555 q 96 527 96 543 q 93 494 96 529 q 90 421 90 459 q 126 471 111 453 q 166 510 141 488 q 220 546 192 533 q 291 559 247 560 q 366 523 342 555 q 389 436 389 491 q 385 359 389 401 q 375 272 381 316 q 365 187 369 229 q 360 111 360 145 q 382 73 360 66 q 399 87 391 77 q 426 123 407 96 q 469 193 444 149 q 533 303 493 236 l 539 317 l 576 284 l 569 270 q 497 137 529 189 q 440 54 465 84 q 392 11 414 23 q 347 0 369 0 q 318 4 333 0 q 293 18 304 8 q 276 45 282 28 q 269 90 269 63 q 274 181 269 130 q 286 283 280 232 q 299 379 293 334 q 304 453 304 424 q 294 491 304 478 q 261 503 283 503 "},"O":{"x_min":-14.921875,"x_max":882.375,"ha":869,"o":"m 172 655 q 181 760 172 705 q 204 870 189 815 q 245 974 219 925 q 311 1063 271 1023 q 405 1120 352 1102 q 519 1138 459 1138 q 632 1118 581 1138 q 722 1060 682 1097 q 793 972 763 1023 q 843 861 823 921 q 872 733 862 800 q 882 596 882 666 q 869 442 882 518 q 832 295 857 365 q 770 164 807 225 q 683 60 733 104 q 572 -9 634 16 q 436 -34 510 -34 q 306 -13 366 -34 q 196 47 246 8 q 106 140 145 86 q 40 258 67 193 q 0 397 13 323 q -14 548 -14 470 q -1 691 -14 625 q 35 812 12 756 q 88 913 59 868 q 149 994 118 959 q 212 1057 181 1030 q 270 1101 244 1083 l 325 1061 q 239 967 278 1023 q 170 845 200 910 q 128 712 140 780 q 109 539 115 644 q 131 311 109 387 q 208 164 154 236 q 318 59 263 92 q 438 25 373 25 q 576 60 509 25 q 689 173 643 94 q 751 327 735 252 q 767 548 767 402 q 751 771 767 688 q 700 926 736 853 q 610 1032 665 999 q 499 1066 555 1066 q 424 1051 456 1066 q 365 1009 392 1036 q 312 931 337 982 q 283 836 287 880 q 278 735 280 792 q 276 625 276 678 q 279 518 276 561 q 288 448 282 475 q 302 397 294 416 l 246 388 q 224 419 236 399 q 200 470 211 438 q 180 548 188 502 q 172 655 172 593 "},"3":{"x_min":-14.25,"x_max":611.078125,"ha":610,"o":"m 200 560 q 287 614 242 583 q 367 684 331 645 q 426 767 403 723 q 451 846 449 810 q 439 897 451 881 q 409 931 428 914 q 364 956 389 948 q 311 964 339 964 q 249 956 280 964 q 196 930 219 949 q 159 887 174 910 q 144 829 144 864 q 160 778 144 797 q 192 746 175 758 q 229 714 208 727 l 205 670 q 141 693 168 678 q 96 728 114 708 q 70 770 79 747 q 62 816 62 792 q 80 892 62 853 q 132 965 98 931 q 216 1016 166 998 q 327 1035 265 1035 q 414 1022 372 1035 q 490 987 457 1009 q 541 934 522 964 q 560 861 560 904 q 546 787 560 826 q 516 717 533 748 q 471 656 499 685 q 422 608 443 626 q 385 579 402 590 q 354 564 369 569 q 458 533 415 556 q 535 473 501 510 q 590 389 569 436 q 611 291 611 342 q 596 202 611 242 q 557 128 582 161 q 498 71 532 96 q 425 31 464 47 q 344 6 386 14 q 259 -1 301 -1 q 156 11 206 -1 q 69 50 107 24 q 8 115 31 76 q -14 208 -14 155 q -6 264 -14 236 q 14 318 1 293 q 45 366 27 343 q 84 406 63 389 l 132 384 q 108 318 115 352 q 100 251 100 284 q 114 169 100 197 q 149 122 128 141 q 205 92 170 102 q 280 83 240 83 q 347 88 320 83 q 405 116 374 94 q 458 169 437 139 q 480 248 479 199 q 473 338 487 296 q 427 415 459 379 q 340 473 394 451 q 215 496 286 496 l 200 560 "},"]":{"x_min":-19.671875,"x_max":133.609375,"ha":119,"o":"m 35 1146 l -19 1146 l -19 1180 l 133 1180 l 133 -34 l -19 -34 l -19 0 l 35 0 l 35 1146 "},"m":{"x_min":-22.375,"x_max":819.296875,"ha":791,"o":"m 223 501 q 186 486 203 501 q 153 447 170 471 q 121 392 137 423 q 89 324 104 360 l 89 316 q 83 195 85 262 q 82 48 82 128 q 72 26 82 35 q 51 11 63 16 q 26 2 39 5 q 5 0 13 0 q -13 6 -4 0 q -22 33 -22 12 q -20 58 -22 43 q -15 91 -18 73 q -8 127 -12 109 q -1 162 -4 146 q -1 266 -1 220 q -2 348 -2 312 q -2 411 -2 384 q -2 458 -2 438 q -1 506 -2 491 q 1 527 0 521 q 13 542 4 537 q 33 551 23 548 q 53 554 43 554 q 69 555 63 555 q 86 548 82 555 q 90 524 90 540 q 90 466 90 489 q 89 415 90 444 q 116 469 102 446 q 150 514 130 492 q 194 547 170 536 q 252 556 219 558 q 300 542 280 555 q 332 507 320 530 q 348 466 344 485 q 355 411 353 446 q 394 470 374 446 q 437 513 413 494 q 487 544 460 531 q 553 556 515 557 q 630 523 607 555 q 654 436 654 491 q 649 358 654 401 q 637 272 643 316 q 626 186 631 228 q 620 109 620 144 q 637 86 620 80 q 661 99 648 86 q 687 135 674 112 q 722 201 700 159 q 773 301 744 243 l 780 316 l 819 284 l 812 270 q 744 138 772 190 q 693 55 716 86 q 651 12 671 24 q 607 0 631 0 q 579 4 592 0 q 555 18 565 8 q 539 45 545 28 q 533 90 533 63 q 538 181 533 130 q 550 283 543 232 q 562 379 557 334 q 568 453 568 424 q 557 493 568 478 q 526 504 546 508 q 481 487 504 504 q 435 443 457 470 q 394 383 413 417 q 360 318 375 350 q 358 197 359 250 q 354 107 356 144 q 347 49 352 71 q 339 21 343 28 q 327 12 335 16 q 309 5 319 8 q 290 1 299 2 q 276 0 281 0 q 258 6 265 0 q 250 31 250 12 q 251 55 250 40 q 256 88 253 70 q 262 128 259 107 q 269 170 265 149 q 270 216 269 191 q 271 266 271 241 q 272 313 272 290 q 273 352 273 336 q 271 415 273 387 q 263 464 269 444 q 249 493 257 484 q 223 501 242 501 "},"9":{"x_min":-18.3125,"x_max":569.703125,"ha":552,"o":"m 263 490 q 334 509 300 490 q 392 556 367 528 q 430 620 417 584 q 444 715 444 657 q 432 823 444 779 q 398 895 421 867 q 342 937 376 923 q 269 951 308 951 q 201 934 234 951 q 143 887 168 917 q 108 815 118 857 q 98 712 98 773 q 107 620 98 653 q 137 558 117 587 q 190 510 158 530 q 263 490 223 490 m 140 40 q 199 72 168 52 q 263 120 231 91 q 323 182 295 149 q 377 266 351 214 q 422 385 402 318 q 451 522 441 452 q 428 493 438 503 q 393 462 418 482 q 333 428 368 442 q 251 413 297 413 q 137 435 187 413 q 52 494 86 457 q 0 579 17 531 q -18 683 -18 628 q 4 822 -18 760 q 67 925 27 883 q 159 990 106 967 q 271 1012 212 1012 q 394 985 339 1012 q 487 905 448 958 q 548 773 526 852 q 569 592 569 695 q 552 441 569 514 q 505 306 535 369 q 435 189 476 242 q 348 96 395 137 q 252 31 302 56 q 152 -1 202 6 l 140 40 "},"l":{"x_min":-9.5,"x_max":323.515625,"ha":296,"o":"m 139 92 q 167 108 151 92 q 202 152 183 124 q 240 217 220 180 q 282 298 261 255 l 289 312 l 323 284 l 316 270 q 252 147 280 198 q 200 63 224 96 q 153 15 175 30 q 108 0 131 0 q 55 20 78 0 q 19 87 33 40 q -2 211 4 134 q -9 402 -9 288 q 4 679 -9 564 q 41 869 17 795 q 95 979 64 944 q 160 1013 126 1013 q 194 997 180 1013 q 208 937 208 980 q 202 859 208 903 q 188 767 197 816 q 167 664 179 717 q 141 558 155 611 q 113 455 128 505 q 86 360 99 404 q 95 224 90 277 q 107 140 100 170 q 121 101 114 109 q 139 92 127 92 m 162 910 q 158 932 162 924 q 147 940 155 940 q 133 925 140 940 q 120 873 127 909 q 107 790 113 837 q 96 689 101 742 q 89 580 92 636 q 86 495 86 524 q 109 603 96 545 q 131 717 122 660 q 150 819 141 773 q 162 910 158 866 "},"8":{"x_min":-128.1875,"x_max":524.265625,"ha":435,"o":"m 524 302 q 496 171 524 229 q 422 72 467 113 q 317 8 376 31 q 198 -13 259 -13 q 70 6 130 -13 q -32 63 11 26 q -102 151 -77 99 q -128 266 -128 202 q -106 375 -128 328 q -49 458 -84 421 q 26 526 -14 494 q 111 585 66 558 q 61 626 90 600 q 9 680 31 651 q -25 741 -12 708 q -37 812 -37 773 q -17 903 -37 863 q 35 971 2 943 q 111 1013 69 999 q 198 1028 153 1028 q 291 1014 248 1028 q 366 974 335 1000 q 416 913 398 949 q 434 833 434 877 q 421 762 434 793 q 386 706 408 731 q 340 659 364 681 q 280 620 317 638 q 363 559 318 591 q 444 490 408 528 q 502 405 480 451 q 524 302 524 360 m -12 271 q 3 177 -16 215 q 49 113 23 139 q 112 73 75 87 q 193 59 149 59 q 269 66 239 59 q 332 96 299 73 q 387 164 365 120 q 408 267 408 208 q 391 357 408 320 q 335 425 374 394 q 249 490 295 457 q 174 545 204 522 q 103 491 137 517 q 43 432 70 465 q 1 364 15 399 q -12 271 -12 330 m 344 837 q 335 895 344 872 q 308 935 326 918 q 263 964 291 953 q 196 974 236 974 q 143 966 166 974 q 102 942 120 958 q 71 901 84 927 q 59 841 59 875 q 73 788 60 815 q 108 737 87 760 q 159 693 128 714 q 221 655 189 672 q 273 694 249 674 q 314 738 297 714 q 338 783 331 763 q 344 837 344 804 "},"p":{"x_min":-12.203125,"x_max":555.46875,"ha":528,"o":"m 88 451 q 118 494 100 476 q 156 525 136 511 q 201 547 176 539 q 257 555 226 555 q 328 536 297 555 q 381 484 360 516 q 413 409 402 452 q 423 322 423 367 q 411 198 423 252 q 383 116 398 145 q 442 185 406 137 q 515 298 478 232 l 522 312 l 555 284 l 548 270 q 480 158 517 208 q 401 72 442 107 q 314 18 359 37 q 221 0 268 0 q 143 18 179 0 q 88 63 107 36 l 88 -257 q 85 -300 88 -282 q 72 -327 81 -317 q 50 -342 64 -338 q 15 -347 35 -347 q -6 -342 0 -347 q -12 -326 -12 -337 q -10 -309 -12 -321 q -8 -272 -9 -297 q -5 -207 -6 -247 q -4 -104 -4 -166 l -4 270 q -4 390 -4 345 q -6 461 -5 436 q -7 497 -6 486 q -8 516 -8 508 q -1 530 -8 523 q 16 542 5 537 q 39 551 27 548 q 63 555 52 555 q 82 549 75 555 q 88 527 88 543 l 88 451 m 223 489 q 169 471 194 489 q 127 424 144 453 q 100 357 109 394 q 90 284 90 320 l 90 206 q 100 145 90 170 q 126 99 110 120 q 165 67 143 78 q 211 56 187 56 q 298 105 268 46 q 327 293 327 165 q 321 373 327 336 q 302 438 315 411 q 270 477 289 465 q 223 489 250 489 "},"4":{"x_min":-40.6875,"x_max":577.171875,"ha":572,"o":"m -40 372 q 144 565 72 472 q 256 741 215 659 q 311 892 297 823 q 326 1013 326 961 l 434 1013 q 422 889 434 952 q 382 767 409 826 q 317 654 356 708 q 251 561 279 599 q 198 497 223 524 q 134 442 172 470 q 155 448 149 449 q 174 447 162 448 q 215 433 196 441 q 268 404 233 425 q 336 366 302 383 q 402 341 369 349 q 406 547 406 413 l 406 638 l 503 666 q 502 591 503 633 q 501 500 502 548 q 500 403 501 451 q 497 329 499 354 q 527 336 512 331 q 560 352 541 341 l 577 291 q 538 267 559 276 q 496 254 517 258 q 491 126 494 190 q 485 0 489 61 l 388 0 q 395 124 392 61 q 400 255 398 187 q 324 277 360 259 q 256 317 288 296 q 188 349 223 339 q 108 360 153 360 q 66 356 85 360 q 33 344 48 351 q 7 333 18 337 q -12 324 -4 329 l -40 372 "},"R":{"x_min":-14.25,"x_max":1076.34375,"ha":882,"o":"m 631 1138 q 755 1120 701 1138 q 844 1069 808 1102 q 898 994 880 1037 q 916 902 916 951 q 898 799 916 849 q 848 706 880 750 q 774 623 817 662 q 684 552 731 585 q 584 494 636 519 q 480 452 531 469 q 543 378 514 421 q 600 287 573 335 q 654 187 628 238 q 710 89 680 137 q 772 7 739 41 q 845 -55 805 -26 q 944 -102 885 -84 q 1072 -120 1002 -120 l 1076 -173 q 1056 -177 1067 -175 q 1032 -179 1046 -178 q 999 -180 1018 -180 q 845 -160 911 -180 q 731 -106 779 -140 q 649 -26 682 -71 q 589 68 615 18 q 545 171 564 119 q 507 273 526 224 q 468 365 489 322 q 423 425 447 407 q 396 419 410 422 q 368 414 381 416 q 364 343 365 379 q 362 281 363 307 q 358 233 360 254 q 354 194 356 213 q 332 104 346 141 q 297 44 318 67 q 251 10 277 21 q 193 0 225 0 q 111 25 149 0 q 45 102 73 51 q 1 228 17 153 q -14 402 -14 303 q 8 601 -14 506 q 71 778 30 697 q 170 927 112 860 q 300 1040 229 993 q 456 1113 372 1087 q 631 1138 539 1138 m 208 480 q 226 519 209 505 q 266 537 242 533 q 263 647 265 592 q 259 742 261 702 q 256 826 257 789 q 267 833 261 830 q 280 838 272 836 q 298 840 287 840 q 348 829 329 840 q 367 791 367 817 q 367 643 367 711 q 365 534 367 575 q 408 516 387 528 q 447 493 430 505 q 572 549 509 517 q 687 630 635 581 q 768 736 738 679 q 798 881 798 793 q 783 975 798 939 q 744 1030 767 1011 q 683 1063 720 1050 q 605 1077 647 1077 q 472 1057 536 1077 q 348 1001 408 1037 q 237 902 287 964 q 145 760 187 839 q 82 573 103 681 q 62 333 62 465 q 68 222 62 276 q 86 136 73 168 q 122 80 98 104 q 179 55 145 55 q 214 63 198 55 q 245 93 230 70 q 265 150 260 116 q 270 257 270 183 q 270 304 270 283 q 270 344 270 324 q 270 383 270 363 q 269 416 269 402 q 224 435 241 421 q 208 480 208 449 m 249 479 q 251 467 249 472 q 268 463 254 463 l 267 488 q 249 479 254 489 m 366 462 q 376 464 371 462 q 385 469 381 466 q 376 477 381 474 q 365 482 370 480 l 366 462 "},"o":{"x_min":-6.78125,"x_max":568.34375,"ha":541,"o":"m 568 284 l 560 270 q 499 197 537 224 q 416 161 461 169 q 384 97 404 126 q 340 46 365 67 q 285 12 316 24 q 218 0 254 0 q 124 22 166 0 q 53 81 82 44 q 8 169 24 119 q -6 278 -6 220 q 4 369 -6 328 q 33 442 16 410 q 73 498 51 474 q 115 538 94 522 q 154 561 137 554 q 180 569 171 569 l 202 531 q 139 474 172 515 q 105 399 120 443 q 90 278 90 354 q 99 187 90 231 q 124 109 107 143 q 166 60 141 75 q 222 45 191 45 q 293 74 265 45 q 335 162 321 103 q 267 190 299 170 q 211 241 236 210 q 172 310 187 271 q 158 396 158 349 q 167 462 158 434 q 193 511 177 491 q 231 540 210 530 q 276 550 252 550 q 333 534 304 550 q 386 486 362 518 q 425 407 410 455 q 440 297 440 360 q 437 250 440 273 q 430 210 434 227 q 490 238 464 219 q 533 291 515 257 l 540 305 l 568 284 m 206 404 q 218 336 208 364 q 247 282 227 307 q 290 240 267 256 q 343 214 314 225 q 345 250 345 235 q 345 283 345 265 q 337 370 345 331 q 318 437 330 409 q 293 473 305 464 q 264 482 281 482 q 223 462 241 482 q 206 404 206 442 "},"5":{"x_min":-5.421875,"x_max":629.390625,"ha":608,"o":"m 87 984 l 415 984 q 456 985 436 984 q 493 989 476 986 q 525 998 511 992 q 550 1013 540 1004 l 573 986 q 530 938 552 960 q 481 901 508 916 q 417 876 453 885 q 330 868 381 868 l 176 867 l 167 718 q 296 696 224 719 q 424 641 368 672 q 518 565 480 609 q 580 479 557 521 q 616 393 604 436 q 629 307 629 350 q 605 187 629 245 q 537 85 581 130 q 431 13 493 40 q 291 -13 368 -13 q 176 1 231 -13 q 79 45 121 16 q 15 117 37 74 q -5 212 -5 160 q -2 266 -5 240 q 14 318 1 293 q 45 366 27 343 q 84 406 63 389 l 135 380 q 103 315 118 347 q 88 248 88 282 q 102 178 88 202 q 137 131 115 154 q 207 91 158 108 q 312 75 256 75 q 403 96 365 75 q 462 140 441 117 q 499 193 482 162 q 516 273 516 225 q 509 351 516 314 q 480 427 503 387 q 419 502 457 467 q 328 562 381 537 q 209 603 276 588 q 59 619 142 619 l 87 984 "}}}
